<?xml version="1.0" encoding="utf-8"?>
<!-- Generator: Adobe Illustrator 15.0.0, SVG Export Plug-In . SVG Version: 6.00 Build 0)  -->
<!DOCTYPE svg PUBLIC "-//W3C//DTD SVG 1.1//EN" "http://www.w3.org/Graphics/SVG/1.1/DTD/svg11.dtd">
<svg version="1.1" id="Layer_1" xmlns="http://www.w3.org/2000/svg" xmlns:xlink="http://www.w3.org/1999/xlink" x="0px" y="0px"
	 width="13824px" height="2448px" viewBox="0 0 13824 2448" enable-background="new 0 0 13824 2448" xml:space="preserve">
<g>
	<path d="M1785.716,1630.535H2063.9l-12.275,54.035c0,0-32.272,1.1-75.287,1.1c-6.138,116.919-47.618,221.666-129.092,287.85
		c66.081,68.383,139.833,113.596,218.241,113.596c46.083,0,78.305-16.52,102.958-44.139l64.545,47.464
		c-47.616,35.29-93.751,49.612-166.02,49.612c-110.63,0-215.123-46.339-302.683-118.046
		c-41.583,15.445-89.201,25.368-143.004,25.368c-205.917,0-296.547-95.95-296.547-203.971c0-89.354,61.428-187.503,172.107-248.162
		c-10.74-41.914-15.396-82.703-15.396-120.219c0-136.739,67.668-239.313,230.517-239.313c122.954,0,176.761,63.957,176.761,132.34
		c0,46.339-24.601,93.752-69.15,125.718l-89.146-49.612c32.273-28.667,47.667-61.758,47.667-90.427
		c0-35.29-23.066-62.858-67.615-62.858c-69.149,0-98.353,58.435-98.353,142.265c0,136.738,76.822,342.96,188.983,487.448
		c30.741-52.937,36.929-133.44,38.413-234.914c-21.535,0-43.015,0-66.03-1.1L1785.716,1630.535z M1719.636,1982.316
		c-95.287-91.5-167.453-210.619-205.864-327.515c-35.392,44.114-50.788,98.175-50.788,149.986
		c0,99.274,59.943,188.577,173.692,188.577C1669,1993.365,1696.621,1990.092,1719.636,1982.316z"/>
	<path d="M2290.633,1290.871c-4.451-15.444,4.398-26.493,19.843-26.493h73.855c8.849,0,17.646,7.723,19.896,15.447l133.44,506.193
		h4.398l179.778-520.516c2.199-6.623,9.922-12.147,18.72-12.147h19.845c8.848,0,16.57,5.524,18.769,12.147l181.979,520.516h4.398
		l131.241-506.193c2.199-7.725,10.996-15.447,19.845-15.447h73.906c15.394,0,24.244,11.049,19.845,26.493l-208.473,741.108
		c-2.199,8.798-10.996,15.396-19.845,15.396h-17.644c-7.724,0-16.521-5.473-18.72-12.069l-194.099-548.135h-5.525l-190.774,548.135
		c-2.25,6.597-11.047,12.069-18.771,12.069h-17.646c-8.797,0-17.644-6.598-19.843-15.396L2290.633,1290.871z"/>
	<path d="M3252.793,2007.686l338.537-742.183c3.324-6.623,13.247-12.147,18.771-12.147h11.047c5.474,0,15.396,5.524,18.72,12.147
		l336.389,742.183c6.599,14.321-2.199,28.692-18.77,28.692h-69.457c-13.248,0-20.971-6.598-25.369-16.52l-68.383-151.086h-360.631
		c-22.044,50.737-45.213,100.349-67.258,151.086c-3.324,7.672-12.172,16.52-25.369,16.52h-69.506
		C3254.993,2036.378,3246.145,2022.007,3252.793,2007.686z M3752.338,1773.896l-135.64-302.172h-5.523l-134.514,302.172H3752.338z"
		/>
	<path d="M4186.16,1368.051h-179.779c-12.122,0-20.97-9.921-20.97-20.944v-61.758c0-11.021,8.848-20.971,20.97-20.971h474.229
		c12.121,0,20.918,9.949,20.918,20.971v61.758c0,11.023-8.797,20.944-20.918,20.944h-179.78v647.409
		c0,10.996-9.922,20.918-20.969,20.918h-72.781c-10.997,0-20.919-9.922-20.919-20.918V1368.051z"/>
	<path d="M4627.398,1924.982c9.922-14.322,18.771-30.842,28.693-45.214c9.921-14.32,25.367-18.771,37.488-8.848
		c6.6,5.523,91.553,76.105,176.455,76.105c76.105,0,124.643-46.288,124.643-102.548c0-66.133-57.385-108.071-166.53-153.285
		c-112.522-47.413-200.749-105.872-200.749-233.816c0-86.002,66.182-204.021,241.512-204.021
		c110.323,0,193.026,57.361,204.021,65.084c8.85,5.498,17.697,20.944,6.65,37.489c-8.85,13.222-18.771,28.669-27.569,41.915
		c-8.848,14.321-23.168,20.944-38.614,11.022c-7.723-4.425-84.902-55.137-148.887-55.137c-92.627,0-124.593,58.436-124.593,99.249
		c0,62.859,48.487,101.449,140.039,138.965c127.917,51.837,237.113,112.445,237.113,247.063
		c0,114.669-102.548,208.369-245.911,208.369c-134.565,0-219.467-70.582-237.113-87.103
		C4624.125,1951.425,4616.4,1943.753,4627.398,1924.982z"/>
	<path d="M5550.945,1247.424c155.279,0,278.439,134.334,278.439,292.479c0,160.906-123.16,295.217-278.439,295.217
		c-155.383,0-278.544-134.311-278.544-295.217C5272.401,1381.758,5395.563,1247.424,5550.945,1247.424z M5550.945,1744.18
		c102.087,0,181.874-90.937,181.874-204.277c0-110.552-79.787-200.108-181.874-200.108c-102.191,0-181.979,89.557-181.979,200.108
		C5368.967,1653.243,5448.754,1744.18,5550.945,1744.18z"/>
	<g>
		<path d="M5550.945,1911.02c35.188,0,62.602,27.516,62.602,62.705c0,34.063-27.413,62.653-62.602,62.653
			c-34.167,0-62.706-28.591-62.706-62.653C5488.239,1938.535,5516.778,1911.02,5550.945,1911.02z"/>
	</g>
	<path d="M1775.693,358.399c0-10.841,8.592-20.585,20.355-20.585h428.043c11.762,0,20.304,9.744,20.304,20.585v60.635
		c0,10.843-8.542,20.585-20.304,20.585h-338.179v220.9h285.752c10.689,0,20.306,9.744,20.306,20.561v60.66
		c0,11.891-9.617,20.56-20.306,20.56h-285.752v232.818h338.179c11.762,0,20.304,9.744,20.304,20.586v59.535
		c0,10.842-8.542,20.586-20.304,20.586h-428.043c-11.763,0-20.355-9.744-20.355-20.586V358.399z"/>
	<path d="M2429.442,346.484c0-10.818,9.667-19.488,20.356-19.488h26.75l464.408,543.582h1.074V358.399
		c0-10.841,8.541-20.585,20.355-20.585h68.485c10.691,0,20.306,9.744,20.306,20.585v728.757c0,10.844-9.615,19.487-20.306,19.487
		h-27.824l-464.458-558.747h-1.023v527.344c0,10.842-8.592,20.586-20.355,20.586h-67.411c-10.689,0-20.356-9.744-20.356-20.586
		V346.484z"/>
	<path d="M3288.083,358.399c0-10.841,8.594-20.585,20.357-20.585h428.042c11.764,0,20.306,9.744,20.306,20.585v60.635
		c0,10.843-8.542,20.585-20.306,20.585h-338.179v220.9h285.754c10.689,0,20.306,9.744,20.306,20.561v60.66
		c0,11.891-9.616,20.56-20.306,20.56h-285.754v232.818h338.179c11.764,0,20.306,9.744,20.306,20.586v59.535
		c0,10.842-8.542,20.586-20.306,20.586H3308.44c-11.763,0-20.357-9.744-20.357-20.586V358.399z"/>
	<path d="M3941.834,358.399c0-10.841,8.594-20.585,20.357-20.585h70.633c10.689,0,20.305,9.744,20.305,20.585v636.72h289.998
		c11.765,0,20.356,9.744,20.356,20.586v59.535c0,10.842-8.592,20.586-20.356,20.586h-380.936c-11.764,0-20.357-9.744-20.357-20.586
		V358.399z"/>
	<path d="M5231.74,358.399c0-10.841,8.594-20.585,20.357-20.585h243.966c131.651,0,239.723,108.302,239.723,239.312
		c0,134.286-108.071,243.66-238.648,243.66H5341.96v254.454c0,10.842-9.615,20.586-20.304,20.586h-69.559
		c-11.764,0-20.357-9.744-20.357-20.586V358.399z M5489.671,714.66c73.805,0,135.896-60.636,135.896-138.607
		c0-73.624-62.091-129.937-135.896-129.937H5341.96V714.66H5489.671z"/>
	<path d="M5892.755,358.399c0-10.841,8.591-20.585,20.354-20.585h428.044c11.763,0,20.304,9.744,20.304,20.585v60.635
		c0,10.843-8.541,20.585-20.304,20.585h-338.179v220.9h285.754c10.689,0,20.305,9.744,20.305,20.561v60.66
		c0,11.891-9.615,20.56-20.305,20.56h-285.754v232.818h338.179c11.763,0,20.304,9.744,20.304,20.586v59.535
		c0,10.842-8.541,20.586-20.304,20.586h-428.044c-11.764,0-20.354-9.744-20.354-20.586V358.399z"/>
	<g>
		<path d="M7991.044,1212.363c0,3.682,4.706,12.02,4.706,27.209c0,8.388-1.535,19.386-6.802,32.99
			c-22.505,57.079-73.805,113.084-130.831,135.589c-13.605,5.217-25.677,7.824-36.11,7.824c-24.603,0-39.28-14.115-39.28-36.62
			c0-12.582,4.705-28.283,14.678-45.009c36.11-61.784,110.427-104.185,173.746-126.177c-4.145-10.436-108.842,0.51-118.814-34.013
			c-0.512-2.098-1.023-4.705-1.023-6.803c0-7.876,3.121-16.214,7.826-24.601c-94.723,23.016-264.322,53.907-439.141,68.023
			c-83.777,6.803-167.504,10.486-242.895,10.486c-104.696,0-192.615-7.314-240.283-26.188c-22.504-8.337-46.031-22.505-54.42-38.205
			c-1.586-2.609-2.098-5.219-2.098-7.826c0-4.705,2.609-9.975,6.805-13.094c2.096-1.586,4.191-2.609,7.313-2.609
			c4.195,0,8.898,2.098,14.168,7.826c7.825,8.898,10.995,19.385,19.896,29.306c9.923,10.486,25.624,19.385,41.837,23.58
			c50.275,11.507,123.57,19.384,219.314,19.384c65.979,0,142.902-3.684,229.289-12.072c140.807-13.093,310.406-32.987,447.58-70.631
			c27.211-36.673,85.822-75.902,113.032-75.902c1.074,0,2.609,0.512,3.684,0.512c10.995,2.098,24.089,12.02,27.21,21.994
			c0.512,1.023,0.512,2.098,0.512,3.631c0,8.389-6.293,21.481-14.629,21.481c-4.706,0-9.46-3.172-14.167-12.581
			c-1.535-3.633-5.217-5.217-10.433-5.217c-28.797,0-102.088,51.809-102.088,80.605v1.023c1.023,12.581,27.21,16.776,53.396,18.872
			c26.697,2.609,53.396,3.119,61.733,17.798c35.085-12.581,120.96-30.892,158.092-36.107c2.097,0,3.682-0.563,5.267-0.563
			c4.707,0,7.316,1.073,7.316,2.097c0,1.074-2.098,2.096-7.879,3.17c-32.424,4.705-122.441,24.603-155.433,38.718
			C7991.044,1210.777,7991.044,1211.34,7991.044,1212.363z M7983.731,1237.477c0-6.803-1.586-13.605-5.219-19.896
			c-56.003,17.287-141.879,67.564-173.28,120.399c-9.924,16.774-14.117,30.38-14.117,40.864c0,17.236,11.508,26.136,29.307,26.136
			c8.899,0,19.384-2.098,30.328-6.24c57.081-21.991,113.598-86.896,130.884-146.584
			C7983.22,1247.45,7983.731,1242.182,7983.731,1237.477z"/>
		<path d="M8135.737,1228.576c-6.291,0-13.093-4.705-13.093-12.02c0-1.586,0.512-3.119,1.023-4.705
			c2.096-6.291,4.192-12.07,6.853-18.31c8.336-17.289,20.407-32.478,35.034-45.571c8.389-7.314,19.387-10.998,29.309-10.998
			c12.069,0,23.577,5.27,28.795,14.168c0.512,0.512,0.512,0.512,1.074,0.512c2.096,0,4.703-3.17,7.313-3.682
			c0.512,0,1.586-0.512,2.098-0.512c4.195,0,6.291,4.705,6.291,9.412c0,1.584,0,3.17-0.563,4.193
			c-3.631,11.507-26.136,49.713-26.136,71.195c0,8.387,3.631,14.116,13.604,14.116h0.512c71.195,0,162.799-75.902,170.674-79.021
			h0.512c0.512,0,0.512,0,0.512,0.512c0,0,0,0.512-0.512,1.074c-32.987,33.499-121.472,84.236-168.066,86.334h-3.119
			c-20.407,0-27.209-12.53-27.209-27.722c0-14.115,5.216-30.38,10.997-41.888c-18.312,12.069-53.909,36.673-71.709,42.399
			C8138.345,1228.576,8137.323,1228.576,8135.737,1228.576z M8151.949,1201.877c0,1.586,0.512,2.098,1.074,2.098
			c0.512,0,1.535-0.512,2.609-1.023c21.43-13.093,33.502-20.405,51.812-38.205c-3.121-5.268-7.313-7.365-11.507-7.365
			c-2.098,0-4.707,0.563-7.314,2.098c-11.561,5.779-28.283,24.089-34.064,34.575
			C8154.047,1194.564,8151.949,1199.27,8151.949,1201.877z"/>
		<path d="M8398.117,1356.34c-27.721-2.66-35.087-25.677-35.087-49.254c0-51.249,37.185-152.824,54.983-199.419
			c35.596-90.528,73.803-169.038,143.414-246.524c7.313-7.877,14.68-15.189,23.015-21.482c8.9-6.801,17.8-9.41,26.187-9.41
			c5.781,0,11.508,1.586,15.703,4.705c7.313,5.217,9.973,13.605,9.973,23.58c0,29.306-23.066,71.195-31.967,85.821
			c-31.914,56.007-106.791,159.68-174.817,206.784c-5.778,3.633-12.019,8.9-14.116,13.605
			c-15.189,38.205-31.965,83.726-37.184,139.221c0,2.096-0.512,4.193-0.512,6.803c0,16.212,5.73,32.987,24.09,33.499h1.535
			c61.273,0,193.69-156.506,212.002-172.209c3.17-2.607,4.705-3.119,8.387-5.216h0.512c1.586,0,2.609,1.022,2.609,2.608v0.512
			c-3.633,4.193-2.609,3.119-5.219,5.777c-36.62,31.405-158.604,180.599-219.826,180.599H8398.117z M8430.544,1133.342
			c0,1.023,1.074,2.098,2.098,2.098c1.074,0,2.098-0.563,2.66-1.074c65.416-48.691,118.3-123.518,159.115-195.736
			c5.728-10.484,29.817-54.47,29.817-77.486c0-6.291-1.586-10.996-6.291-13.094c-1.021-0.512-2.096-0.512-3.631-0.512
			c-5.27,0-12.07,3.121-19.896,10.998c-7.877,8.335-15.191,16.724-22.505,25.624c-55.493,66.488-94.773,149.703-132.47,228.213
			c-2.045,4.195-7.313,15.702-8.898,19.896V1133.342z"/>
		<path d="M8777.725,1141.68c-30.381,12.07-60.199,21.992-91.604,21.992c-8.389,0-16.774-0.512-25.163-2.096
			c-0.512,2.096-1.023,3.17-1.023,3.682c1.586,5.216,2.096,10.483,2.096,15.702c0,13.604-4.703,26.698-12.581,38.718
			c-12.582,20.406-28.795,37.183-48.129,51.299c-6.29,4.705-13.093,7.365-18.36,7.365c-8.337,0-14.116-5.779-14.116-16.776
			c0-3.682,0.512-8.9,2.607-14.115c10.485-29.308,64.393-113.085,88.483-118.302c1.023,0,1.586-0.512,2.607-0.512
			c4.707,0,7.878,3.119,7.878,7.314c0,1.584-0.563,3.682-2.097,5.217c-1.074,2.098-3.172,4.193-4.195,5.779
			c0.512,2.098,2.098,2.607,3.633,2.607h2.659c4.704,0.512,9.41,0.512,14.115,0.512c19.334,0,37.697-3.631,56.005-10.996
			c14.628-5.729,29.819-12.02,44.499-17.799c3.631-1.534,7.313-3.119,11.508-3.119c2.609,0,4.705,0.511,7.313,3.119
			c2.608,3.17,3.683,6.291,3.683,9.463c0,3.119-1.074,6.801-2.608,9.922c-4.191,8.898-8.387,16.725-12.582,25.113
			c-1.586,2.608-3.682,5.267-4.193,9.972c11.51-8.897,29.306-25.675,41.377-29.306c2.096-0.563,4.193-1.074,5.729-1.074
			c10.484,0,13.094,11.51,13.094,21.993v15.703c0,24.089,2.609,51.81,31.404,51.81h2.096
			c42.912-2.096,107.305-48.128,129.297-68.023c0.512,0,1.074-0.563,1.074-0.563c2.047,0,3.121,2.659,3.121,4.192
			c0,0.563,0,1.074-0.512,1.586c-26.699,26.187-94.775,71.196-132.469,72.781h-2.607c-25.113,0-42.4-16.265-43.936-41.89
			c-0.563-4.705-0.563-8.897-0.563-13.093c0-9.41,0.563-17.287,0.563-23.015c0-5.779-0.563-8.9-3.172-8.9
			c-3.119,0-7.824,3.633-16.212,10.435c-45.009,37.183-47.106,44.497-73.293,92.676c-2.609,4.707-5.729,10.997-11.508,10.997
			c-1.586,0-3.12,0-4.706-1.074c-3.682-1.534-5.266-4.706-5.266-8.337c0-4.756,3.17-10.484,4.191-13.656
			c16.265-42.911,31.967-65.416,51.863-103.622V1141.68z M8648.428,1179.937c0-3.172-0.563-5.779-2.098-8.9
			c-13.094,11.51-48.692,68.536-51.812,83.215c20.407-13.604,45.521-38.206,51.812-61.783
			C8647.354,1188.272,8648.428,1184.079,8648.428,1179.937z"/>
		<path d="M9215.637,1377.77c-1.584,15.191-2.607,30.382-2.607,46.083c0,8.899,0.512,17.8,1.023,26.698v4.195
			c0,2.096,0,4.143-2.098,4.705c-0.512,0-1.023,0.512-1.535,0.512c-2.096,0-3.17-2.098-4.193-3.684
			c-2.66-6.803-3.683-14.117-3.683-21.432v-43.984c5.78-90.018,14.116-180.086,21.993-270.103
			c7.826-91.604,17.287-183.206,26.188-274.298c1.023-9.41,1.023-18.822,1.535-27.721c0-3.683,0.512-7.876,1.584-11.507
			c1.023-4.195,4.194-5.27,7.313-5.27c3.172,0,6.291,1.074,7.365,3.172c2.609,2.609,2.609,32.937,2.609,51.3v12.53
			c-3.684,63.37-13.094,125.665-20.407,188.474c-7.877,62.296-15.703,124.542-22.557,186.837
			C9223.463,1288.775,9219.832,1333.272,9215.637,1377.77z"/>
		<path d="M9432.445,1289.338c-5.216,0-8.897-4.756-8.897-10.484c0-2.098,0-4.195,1.074-6.291
			c10.995-30.893,22.503-61.785,34.522-92.114c32.989-80.096,75.391-153.898,134.002-218.291
			c16.266-17.289,43.987-43.987,67.564-50.226c2.098-0.564,3.631-0.564,5.729-0.564c10.486,0,16.266,8.389,16.266,18.873
			c0,4.195-0.563,8.9-2.66,13.094c-2.609,6.804-6.24,13.604-10.434,19.897c-43.984,72.217-97.894,136.609-159.68,193.64
			c-15.7,14.165-26.697,29.306-34.01,48.689c-2.609,7.314-5.781,14.117-6.803,22.504l57.59-52.323
			c9.41-7.875,26.699-18.36,41.325-18.36c5.27,0,9.975,1.586,14.116,4.758c14.68,12.53,8.389,28.743,12.07,28.743h1.023
			c42.964-15.703,76.975-20.408,121.474-23.527c3.631-0.511,6.291-0.511,8.337-0.511c1.074,0,1.586,0.511,1.586,1.534
			c0,0.563-0.512,1.074-1.586,1.074c-15.139,2.096-23.527,2.607-37.645,4.705c-29.359,4.705-56.566,10.484-85.363,23.016
			c-6.803,3.171-10.996,6.29-13.043,14.167c-18.872,64.904-51.299,101.016-95.796,146.533c-4.705,5.27-11.507,9.412-17.798,12.582
			c-4.195,2.609-8.9,3.633-13.605,3.633c-12.07,0-22.506-8.85-22.506-25.113c0-12.53,6.24-29.307,23.018-49.713
			c41.888-50.278,64.904-68.588,113.595-100.504c2.098-1.585,3.12-1.585,3.12-3.682c0.512-2.608,0.512-6.241,0.512-9.411v-3.682
			c-1.534-8.338-6.239-14.117-13.093-14.117c-2.609,0-5.218,0.512-7.825,2.098c-45.521,20.918-85.313,73.292-115.182,112.521
			C9439.811,1287.242,9436.129,1289.338,9432.445,1289.338z M9576.423,1210.266c0,0-0.512-0.512-1.074-0.512
			c-1.533,0-6.24,3.684-8.336,5.217c-37.185,24.092-69.1,53.909-94.774,89.506c-14.117,19.386-20.408,35.087-20.408,45.01
			c0,6.854,3.172,10.484,8.389,10.484c5.729,0,14.629-4.193,25.113-14.116c36.109-34.011,64.904-72.78,85.312-118.302
			c2.098-5.215,3.682-10.484,5.268-15.701C9575.911,1211.34,9576.423,1210.777,9576.423,1210.266z M9505.738,1147.459
			c1.586-1.023,3.172-2.098,4.193-3.682c57.081-59.125,116.205-125.616,154.41-199.421c2.098-4.192,2.609-9.409,4.195-14.116
			c-1.023-0.51-2.098-1.074-2.609-1.584c-3.682,2.096-7.877,3.682-10.995,6.291c-8.389,6.802-17.287,13.604-24.601,21.429
			C9579.031,1013.457,9537.705,1077.338,9505.738,1147.459z"/>
		<path d="M9713.188,1228.576c-6.292,0-13.093-4.705-13.093-12.02c0-1.586,0.51-3.119,1.021-4.705
			c2.098-6.291,4.195-12.07,6.854-18.31c8.337-17.289,20.408-32.478,35.035-45.571c8.389-7.314,19.385-10.998,29.307-10.998
			c12.072,0,23.58,5.27,28.797,14.168c0.512,0.512,0.512,0.512,1.074,0.512c2.098,0,4.705-3.17,7.313-3.682
			c0.512,0,1.584-0.512,2.096-0.512c4.195,0,6.291,4.705,6.291,9.412c0,1.584,0,3.17-0.563,4.193
			c-3.631,11.507-26.133,49.713-26.133,71.195c0,8.387,3.631,14.116,13.604,14.116h0.512c71.195,0,162.797-75.902,170.674-79.021
			h0.512c0.512,0,0.512,0,0.512,0.512c0,0,0,0.512-0.512,1.074c-32.988,33.499-121.471,84.236-168.066,86.334h-3.119
			c-20.408,0-27.209-12.53-27.209-27.722c0-14.115,5.217-30.38,10.996-41.888c-18.311,12.069-53.91,36.673-71.708,42.399
			C9715.796,1228.576,9714.772,1228.576,9713.188,1228.576z M9729.402,1201.877c0,1.586,0.512,2.098,1.074,2.098
			c0.51,0,1.533-0.512,2.607-1.023c21.43-13.093,33.5-20.405,51.811-38.205c-3.119-5.268-7.313-7.365-11.508-7.365
			c-2.096,0-4.705,0.563-7.314,2.098c-11.559,5.779-28.283,24.089-34.063,34.575
			C9731.498,1194.564,9729.402,1199.27,9729.402,1201.877z"/>
		<path d="M9950.967,1321.253c0-44.497,48.129-103.673,53.908-125.103c0-1.074,0.512-2.097,0.512-3.171
			c0-14.117-29.818-13.043-42.912-21.943c-2.609-2.658-4.193-6.802-4.193-12.069c0-9.412,4.703-21.432,13.604-31.916
			c3.172-3.172,7.365-4.705,11.508-4.705c8.9,0,17.799,6.291,17.799,16.213c0,4.707-1.533,9.924-6.801,15.703
			c18.361,6.291,36.16,12.582,36.16,32.478c0,3.119,0,6.24-1.074,9.922c-3.119,16.776-67.002,85.312-67.002,130.32v3.172
			c1.072,11.508,6.801,20.407,19.385,23.526c2.096,0.563,4.705,1.074,7.313,1.074c61.223,0,210.416-159.115,251.283-182.183
			c3.631-2.098,7.313-3.631,10.945-5.728c1.074,1.022,1.586,2.097,2.096,2.608c-2.096,2.096-4.143,4.705-6.801,5.727
			c-63.832,39.792-193.641,186.378-259.619,186.378c-2.609,0-4.707,0-6.803-0.512c-17.289-3.172-23.527-12.582-27.209-24.089
			C9951.479,1332.249,9950.967,1326.981,9950.967,1321.253z"/>
		<path d="M10215.955,1289.338c-5.217,0-8.9-4.756-8.9-10.484c0-2.098,0-4.195,1.074-6.291
			c10.996-30.893,22.506-61.785,34.525-92.114c32.988-80.096,75.389-153.898,134.002-218.291
			c16.266-17.289,43.984-43.987,67.564-50.226c2.096-0.564,3.631-0.564,5.729-0.564c10.484,0,16.213,8.389,16.213,18.873
			c0,4.195-0.512,8.9-2.607,13.094c-2.609,6.804-6.24,13.604-10.436,19.897c-43.984,72.217-97.895,136.609-159.678,193.64
			c-15.703,14.165-26.699,29.306-34.012,48.689c-2.607,7.314-5.779,14.117-6.803,22.504l57.59-52.323
			c9.412-7.875,26.699-18.36,41.326-18.36c5.268,0,9.975,1.586,14.168,4.758c14.629,12.53,8.336,28.743,12.02,28.743h1.023
			c42.961-15.703,76.975-20.408,121.471-23.527c3.631-0.511,6.291-0.511,8.338-0.511c1.074,0,1.584,0.511,1.584,1.534
			c0,0.563-0.51,1.074-1.584,1.074c-15.141,2.096-23.527,2.607-37.643,4.705c-29.359,4.705-56.57,10.484-85.363,23.016
			c-6.803,3.171-10.998,6.29-13.043,14.167c-18.873,64.904-51.299,101.016-95.797,146.533c-4.707,5.27-11.561,9.412-17.799,12.582
			c-4.193,2.609-8.898,3.633-13.605,3.633c-12.07,0-22.504-8.85-22.504-25.113c0-12.53,6.24-29.307,23.016-49.713
			c41.889-50.278,64.904-68.588,113.596-100.504c2.098-1.585,3.119-1.585,3.119-3.682c0.512-2.608,0.512-6.241,0.512-9.411v-3.682
			c-1.533-8.338-6.24-14.117-13.094-14.117c-2.607,0-5.217,0.512-7.826,2.098c-45.518,20.918-85.309,73.292-115.18,112.521
			C10223.32,1287.242,10219.637,1289.338,10215.955,1289.338z M10359.932,1210.266c0,0-0.512-0.512-1.074-0.512
			c-1.535,0-6.24,3.684-8.338,5.217c-37.182,24.092-69.098,53.909-94.771,89.506c-14.117,19.386-20.408,35.087-20.408,45.01
			c0,6.854,3.172,10.484,8.389,10.484c5.729,0,14.627-4.193,25.111-14.116c36.109-34.011,64.906-72.78,85.313-118.302
			c2.096-5.215,3.682-10.484,5.268-15.701C10359.42,1211.34,10359.932,1210.777,10359.932,1210.266z M10289.248,1147.459
			c1.584-1.023,3.17-2.098,4.193-3.682c57.078-59.125,116.205-125.616,154.41-199.421c2.098-4.192,2.609-9.409,4.193-14.116
			c-1.021-0.51-2.096-1.074-2.607-1.584c-3.684,2.096-7.877,3.682-10.996,6.291c-8.389,6.802-17.289,13.604-24.604,21.429
			C10362.539,1013.457,10321.215,1077.338,10289.248,1147.459z"/>
		<path d="M10520.223,1270.466c-27.209,0-38.205-20.408-38.205-41.327c0-8.387,1.586-16.775,4.705-24.09
			c15.189-37.183,41.889-63.881,79.582-79.584c5.217-2.607,9.924-3.119,14.117-3.119c10.996,0,16.777,7.826,16.777,16.725
			c0,5.27-1.586,10.484-4.707,14.68c-5.268,7.314-10.484,15.19-17.799,19.896c-14.678,9.922-30.891,18.822-46.594,27.72
			c-4.705,2.609-9.973,4.195-15.189,4.195c-3.121,0-6.291-0.512-9.924-1.586c-6.291,9.463-8.898,18.873-8.898,27.262
			c0,16.724,12.02,28.233,33.5,28.233c5.729,0,11.51-0.512,17.801-2.098c51.299-12.531,135.025-58.103,175.326-88.994
			c1.074-1.023,2.098-1.534,3.172-1.534c0.512,0,1.023,0.511,1.023,1.534c0,0.563-0.512,1.586-2.098,3.17
			c-37.693,32.989-145.51,96.309-199.418,98.918H10520.223z M10511.887,1189.347c22.504-6.801,56.004-33.499,58.613-46.593
			C10545.389,1150.578,10528.611,1168.378,10511.887,1189.347z"/>
		<path d="M10697.803,1321.253c0-44.497,48.129-103.673,53.908-125.103c0-1.074,0.512-2.097,0.512-3.171
			c0-14.117-29.818-13.043-42.91-21.943c-2.609-2.658-4.195-6.802-4.195-12.069c0-9.412,4.707-21.432,13.604-31.916
			c3.172-3.172,7.365-4.705,11.508-4.705c8.9,0,17.801,6.291,17.801,16.213c0,4.707-1.535,9.924-6.803,15.703
			c18.361,6.291,36.16,12.582,36.16,32.478c0,3.119,0,6.24-1.074,9.922c-3.119,16.776-67,85.312-67,130.32v3.172
			c1.074,11.508,6.801,20.407,19.383,23.526c2.096,0.563,4.705,1.074,7.314,1.074c61.221,0,210.414-159.115,251.281-182.183
			c3.631-2.098,7.314-3.631,10.945-5.728c1.074,1.022,1.586,2.097,2.098,2.608c-2.098,2.096-4.145,4.705-6.803,5.727
			c-63.83,39.792-193.641,186.378-259.619,186.378c-2.609,0-4.705,0-6.803-0.512c-17.285-3.172-23.525-12.582-27.209-24.089
			C10698.314,1332.249,10697.803,1326.981,10697.803,1321.253z"/>
		<path d="M11201.594,1377.77c-1.586,15.191-2.609,30.382-2.609,46.083c0,8.899,0.512,17.8,1.023,26.698v4.195
			c0,2.096,0,4.143-2.098,4.705c-0.512,0-1.023,0.512-1.535,0.512c-2.096,0-3.17-2.098-4.193-3.684
			c-2.66-6.803-3.684-14.117-3.684-21.432v-43.984c5.781-90.018,14.117-180.086,21.994-270.103
			c7.826-91.604,17.289-183.206,26.186-274.298c1.023-9.41,1.023-18.822,1.535-27.721c0-3.683,0.563-7.876,1.586-11.507
			c1.021-4.195,4.193-5.27,7.313-5.27c3.172,0,6.291,1.074,7.365,3.172c2.609,2.609,2.609,32.937,2.609,51.3v12.53
			c-3.684,63.37-13.094,125.665-20.408,188.474c-7.875,62.296-15.699,124.542-22.555,186.837
			C11209.418,1288.775,11205.787,1333.272,11201.594,1377.77z"/>
		<path d="M11421.061,1415.976c-24.602,0-39.279-14.115-39.279-36.62c0-12.582,4.705-28.283,14.678-45.009
			c36.109-61.784,110.426-103.673,173.744-126.177c-4.143-9.924-108.84,1.074-118.813-34.013c-0.512-2.098-1.021-4.705-1.021-6.803
			c0-42.913,91.09-112.011,127.711-112.011c1.586,0,3.119,0.512,4.193,0.512c10.998,1.586,24.092,11.508,27.211,21.994
			c0.512,1.023,0.512,2.098,0.512,3.631c0,7.877-6.291,20.97-14.629,20.97c-4.705,0-9.461-3.172-14.168-12.581
			c-1.533-3.633-5.217-5.217-10.434-5.217c-28.797,0-102.088,52.32-102.088,80.605v1.023c1.021,12.581,27.209,16.776,53.396,19.384
			c26.697,2.098,53.396,2.607,61.785,17.286c35.033-12.581,120.908-30.892,158.041-35.597c2.609-0.511,4.707-0.511,6.803-0.511
			c3.684,0,5.781,0.511,5.781,1.534c0,1.074-2.098,2.096-7.877,3.17c-32.428,5.217-122.445,25.113-155.434,39.229
			c-1.074,0.563-1.074,1.074-1.074,2.098c0,3.17,4.705,11.508,4.705,26.697c0,8.388-1.533,19.386-6.803,32.99
			c-22.504,57.079-73.803,113.084-130.83,135.589C11443.566,1413.368,11431.494,1415.976,11421.061,1415.976z M11390.168,1378.844
			c0,17.236,11.508,26.136,29.307,26.136c8.389,0,18.822-2.098,29.82-6.24c57.59-21.479,114.105-86.896,131.393-146.074
			c1.586-4.705,2.098-9.921,2.098-14.626c0-6.803-1.586-13.656-5.779-20.459c-55.441,17.799-141.828,67.564-172.721,120.399
			C11394.361,1354.754,11390.168,1368.359,11390.168,1378.844z"/>
		<path d="M11572.504,1563.073c-3.119,0-6.291-2.098-7.313-9.924v-1.074c0-3.119,1.021-5.728,2.096-7.824
			c49.715-124.592,103.623-247.087,172.721-362.268c12.072-19.845,26.188-39.229,40.303-58.104
			c6.803-8.897,21.482-25.112,34.064-26.646h1.535c5.779,0,9.41,3.631,9.41,8.848c0,1.586,0,2.66-0.512,3.684
			c-1.533,3.682-3.631,6.803-6.291,9.973c-40.814,54.932-73.24,115.13-105.719,174.817c-0.512,1.023-1.023,2.609-1.023,3.684
			c0.512,1.023,1.023,1.023,1.535,2.045c39.281-51.812,76.975-97.332,126.178-140.242c13.604-12.07,41.889-34.064,60.199-38.207
			c3.119-0.563,5.729-1.073,8.336-1.073c12.582,0,17.799,7.876,17.799,19.384c0,16.215-9.922,39.792-22.504,57.028
			c38.205-13.094,60.199-18.311,135.588-29.307c4.707-0.512,8.389-1.022,10.998-1.022c5.217,0,7.313,1.022,7.313,2.097
			c0,2.096-4.705,4.143-8.898,4.705c-15.703,1.023-121.422,21.993-152.824,39.229c-35.088,46.595-52.375,74.877-101.578,109.964
			c-6.803,4.705-12.531,6.803-17.236,6.803c-6.803,0-10.996-4.756-10.996-12.071c0-4.705,1.021-9.922,4.193-15.701
			c8.9-17.287,21.432-32.427,35.035-46.032c24.604-25.163,42.4-38.769,67.002-50.788c15.191-9.973,28.285-40.814,32.479-57.078
			c1.023-4.193,2.609-7.826,2.609-9.924c0-1.586-1.023-2.096-2.609-2.096c-0.512,0-1.586,0-3.17,0.51
			c-28.746,7.316-66.439,41.378-86.336,61.785c-68.586,69.61-126.178,147.097-173.283,231.896
			c-16.727,29.82-30.33,60.712-45.008,91.604c-4.707,9.924-4.707,22.505-16.727,38.206
			C11579.307,1560.464,11576.188,1563.073,11572.504,1563.073z M11857.797,1238.039c0-0.563-0.512-1.074-1.584-1.074
			c-1.023,0-2.609,0.512-4.707,1.586c-22.502,14.626-43.984,36.107-56.004,53.396c-1.023,1.533-2.098,3.631-2.098,5.217
			c0,0.512,0.512,1.586,1.586,1.586c1.023,0,2.609-0.512,4.705-1.586c14.68-13.605,39.793-32.427,54.982-53.908
			C11856.775,1241.158,11857.797,1239.572,11857.797,1238.039z"/>
		<path d="M12038.549,1229.139c-6.803,0-13.605-4.756-13.605-12.07c0-1.586,0.512-3.119,1.023-4.705
			c2.098-6.291,3.682-12.582,6.803-18.31c8.389-17.801,20.408-32.989,34.574-45.571c8.336-7.314,19.332-10.947,29.818-10.947
			c12.02,0,23.016,4.707,28.285,13.605c0.51,0.512,1.021,0.512,1.533,0.512c1.586,0,4.758-2.607,6.854-3.682h1.535
			c4.705,0,7.313,5.268,7.313,9.973c0,1.535,0,2.609-0.512,3.633c-2.607,7.876-12.018,23.577-12.018,42.961v1.535
			c1.023,34.012,17.285,40.866,46.031,40.866h3.682c242.383-2.66,684.131-112.062,893.523-112.062h16.777
			c29.818,1.074,141.316,5.779,158.041,37.694c1.074,2.607,2.098,5.268,2.098,7.365c0,7.314-5.217,14.117-13.043,14.117
			c-4.195,0-9.975-2.609-15.703-8.9c-20.457-22.505-57.59-28.794-86.385-32.478c-18.311-2.098-38.717-3.121-61.273-3.121
			c-232.408,0-668.43,101.015-894.035,105.72h-4.705c-14.117,0-30.893-2.098-41.889-11.508
			c-14.115-12.019-19.896-33.501-19.896-50.225c0-2.66,0-5.27,0.563-7.877c-18.361,12.069-54.469,36.673-71.758,42.911
			C12041.158,1229.139,12039.572,1229.139,12038.549,1229.139z M12054.252,1202.439c0,1.023,0,2.098,1.021,2.098
			c0.563,0,1.074-0.563,2.098-1.074c21.992-13.093,33.5-20.917,52.373-38.205c-3.682-5.779-7.365-7.877-11.508-7.877
			c-2.098,0-4.758,1.074-7.365,2.098c-11.508,5.779-28.232,24.089-34.523,35.086
			C12055.836,1195.076,12054.252,1199.781,12054.252,1202.439z"/>
	</g>
	<path d="M6631.663,337.072h-70.582c-12.172,0-20.97,19.769-20.97,41.659v906.618v129.373h-1.125l1.125,0.076v392.189h-1.125
		l-478.627-553.632h-27.567c-10.996,0-20.918,8.823-20.918,19.872v742.232c0,10.996,9.922,20.918,20.918,20.918h69.508
		c12.123,0,20.92-9.922,20.92-20.918v-537.11h1.124l478.627,569.025h28.692c10.996,0,20.919-8.796,20.919-19.845v-605.699v-136.482
		V378.731C6652.582,356.841,6642.659,337.072,6631.663,337.072z"/>
	<path d="M1213.442,337.814H967.327c-10.691,0-19.283,9.744-19.283,20.585v65.749v651.092v921.295
		c0,26.802,9.564,50.84,20.203,50.84h70.223c10.691,0,20.255-24.038,20.255-50.84v-900.709h154.717
		c206.53,0,375.617-170.01,375.617-380.092C1589.059,507.823,1419.972,337.814,1213.442,337.814z M1198.456,992.945h-139.731
		V440.694h139.731c157.326,0,271.792,115.872,271.792,275.04C1470.248,876,1355.782,992.945,1198.456,992.945z"/>
	<path d="M4761.963,1095.826c-155.279,0-278.439-134.337-278.439-292.479c0-160.905,123.16-295.242,278.439-295.242
		c155.383,0,278.542,134.337,278.542,295.242C5040.505,961.489,4917.346,1095.826,4761.963,1095.826z M4761.963,599.069
		c-102.087,0-181.875,90.937-181.875,204.277c0,110.552,79.788,200.108,181.875,200.108c102.191,0,181.979-89.557,181.979-200.108
		C4943.941,690.006,4864.154,599.069,4761.963,599.069z"/>
	<g>
		<path d="M4761.963,432.229c-35.188,0-62.602-27.491-62.602-62.68c0-34.089,27.414-62.68,62.602-62.68
			c34.166,0,62.706,28.591,62.706,62.68C4824.669,404.738,4796.129,432.229,4761.963,432.229z"/>
	</g>
</g>
</svg>
