<?xml version="1.0" encoding="utf-8"?>
<!-- Generator: Adobe Illustrator 15.0.0, SVG Export Plug-In . SVG Version: 6.00 Build 0)  -->
<!DOCTYPE svg PUBLIC "-//W3C//DTD SVG 1.1//EN" "http://www.w3.org/Graphics/SVG/1.1/DTD/svg11.dtd">
<svg version="1.1" id="Layer_1" xmlns="http://www.w3.org/2000/svg" xmlns:xlink="http://www.w3.org/1999/xlink" x="0px" y="0px"
	 width="288px" height="288px" viewBox="0 0 288 288" enable-background="new 0 0 288 288" xml:space="preserve">
<path d="M-107.826,152.914h5.312l-0.234,1.031c0,0-0.616,0.021-1.438,0.021c-0.117,2.232-0.909,4.232-2.465,5.496
	c1.262,1.306,2.67,2.169,4.167,2.169c0.88,0,1.495-0.315,1.966-0.843l1.232,0.906c-0.909,0.674-1.79,0.947-3.17,0.947
	c-2.112,0-4.107-0.885-5.779-2.254c-0.794,0.295-1.703,0.484-2.73,0.484c-3.932,0-5.662-1.832-5.662-3.895
	c0-1.706,1.173-3.58,3.286-4.738c-0.205-0.801-0.294-1.579-0.294-2.295c0-2.611,1.292-4.57,4.401-4.57
	c2.348,0,3.375,1.222,3.375,2.527c0,0.885-0.47,1.79-1.32,2.4l-1.702-0.947c0.616-0.547,0.91-1.18,0.91-1.727
	c0-0.674-0.44-1.2-1.291-1.2c-1.32,0-1.878,1.116-1.878,2.716c0,2.611,1.467,6.549,3.608,9.308c0.587-1.011,0.705-2.548,0.733-4.485
	c-0.411,0-0.821,0-1.261-0.021L-107.826,152.914z M-109.087,159.631c-1.819-1.747-3.197-4.021-3.931-6.254
	c-0.676,0.843-0.97,1.875-0.97,2.864c0,1.896,1.145,3.601,3.316,3.601C-110.054,159.842-109.527,159.779-109.087,159.631z"/>
<path d="M-98.185,146.429c-0.085-0.295,0.084-0.506,0.379-0.506h1.41c0.169,0,0.337,0.147,0.38,0.295l2.548,9.665h0.084l3.433-9.938
	c0.042-0.126,0.189-0.231,0.357-0.231h0.379c0.169,0,0.316,0.105,0.358,0.231l3.475,9.938h0.084l2.506-9.665
	c0.042-0.147,0.21-0.295,0.379-0.295h1.411c0.294,0,0.463,0.211,0.379,0.506l-3.98,14.15c-0.042,0.168-0.21,0.294-0.379,0.294
	h-0.337c-0.147,0-0.315-0.104-0.357-0.23l-3.706-10.466h-0.105l-3.643,10.466c-0.043,0.126-0.211,0.23-0.358,0.23h-0.337
	c-0.168,0-0.337-0.126-0.379-0.294L-98.185,146.429z"/>
<path d="M-79.814,160.115l6.464-14.171c0.063-0.126,0.253-0.231,0.358-0.231h0.211c0.104,0,0.294,0.105,0.357,0.231L-66,160.115
	c0.126,0.273-0.042,0.548-0.358,0.548h-1.326c-0.253,0-0.4-0.126-0.484-0.315l-1.306-2.885h-6.886
	c-0.421,0.969-0.863,1.916-1.284,2.885c-0.063,0.146-0.232,0.315-0.484,0.315h-1.327C-79.772,160.663-79.941,160.389-79.814,160.115
	z M-70.276,155.651l-2.59-5.77h-0.105l-2.568,5.77H-70.276z"/>
<path d="M-61.993,147.902h-3.433c-0.231,0-0.4-0.189-0.4-0.4v-1.179c0-0.21,0.169-0.4,0.4-0.4h9.055c0.231,0,0.399,0.19,0.399,0.4
	v1.179c0,0.211-0.168,0.4-0.399,0.4h-3.433v12.361c0,0.21-0.189,0.399-0.4,0.399h-1.39c-0.21,0-0.399-0.189-0.399-0.399V147.902z"/>
<path d="M-53.568,158.536c0.189-0.273,0.358-0.589,0.548-0.863c0.189-0.273,0.484-0.358,0.716-0.169
	c0.126,0.105,1.748,1.453,3.369,1.453c1.453,0,2.38-0.884,2.38-1.958c0-1.263-1.096-2.063-3.18-2.927
	c-2.148-0.905-3.833-2.021-3.833-4.465c0-1.642,1.264-3.895,4.611-3.895c2.106,0,3.686,1.095,3.896,1.242
	c0.169,0.105,0.338,0.4,0.127,0.716c-0.169,0.253-0.358,0.548-0.526,0.8c-0.169,0.273-0.442,0.4-0.737,0.211
	c-0.147-0.084-1.621-1.053-2.843-1.053c-1.769,0-2.379,1.115-2.379,1.895c0,1.201,0.926,1.938,2.674,2.654
	c2.442,0.989,4.527,2.146,4.527,4.717c0,2.189-1.958,3.979-4.695,3.979c-2.569,0-4.19-1.348-4.527-1.663
	C-53.63,159.041-53.778,158.895-53.568,158.536z"/>
<path d="M-35.934,145.6c2.965,0,5.316,2.564,5.316,5.584c0,3.072-2.352,5.637-5.316,5.637c-2.967,0-5.318-2.564-5.318-5.637
	C-41.252,148.164-38.901,145.6-35.934,145.6z M-35.934,155.084c1.949,0,3.473-1.736,3.473-3.9c0-2.111-1.523-3.82-3.473-3.82
	c-1.951,0-3.475,1.709-3.475,3.82C-39.409,153.348-37.885,155.084-35.934,155.084z"/>
<g>
	<path d="M-35.934,158.27c0.672,0,1.195,0.525,1.195,1.197c0,0.65-0.523,1.196-1.195,1.196c-0.652,0-1.197-0.546-1.197-1.196
		C-37.131,158.795-36.586,158.27-35.934,158.27z"/>
</g>
<path d="M-108.017,128.625c0-0.207,0.164-0.393,0.389-0.393h8.173c0.225,0,0.388,0.186,0.388,0.393v1.158
	c0,0.207-0.163,0.393-0.388,0.393h-6.457v4.218h5.456c0.204,0,0.388,0.186,0.388,0.393v1.158c0,0.227-0.184,0.393-0.388,0.393
	h-5.456v4.445h6.457c0.225,0,0.388,0.186,0.388,0.393v1.137c0,0.207-0.163,0.393-0.388,0.393h-8.173
	c-0.225,0-0.389-0.186-0.389-0.393V128.625z"/>
<path d="M-95.535,128.397c0-0.207,0.185-0.372,0.389-0.372h0.511l8.867,10.379h0.021v-9.779c0-0.207,0.163-0.393,0.389-0.393h1.308
	c0.204,0,0.388,0.186,0.388,0.393v13.915c0,0.207-0.184,0.372-0.388,0.372h-0.531l-8.868-10.668h-0.02v10.069
	c0,0.207-0.164,0.393-0.389,0.393h-1.287c-0.204,0-0.389-0.186-0.389-0.393V128.397z"/>
<path d="M-79.14,128.625c0-0.207,0.164-0.393,0.389-0.393h8.173c0.225,0,0.388,0.186,0.388,0.393v1.158
	c0,0.207-0.163,0.393-0.388,0.393h-6.457v4.218h5.456c0.204,0,0.388,0.186,0.388,0.393v1.158c0,0.227-0.184,0.393-0.388,0.393
	h-5.456v4.445h6.457c0.225,0,0.388,0.186,0.388,0.393v1.137c0,0.207-0.163,0.393-0.388,0.393h-8.173
	c-0.225,0-0.389-0.186-0.389-0.393V128.625z"/>
<path d="M-66.658,128.625c0-0.207,0.164-0.393,0.389-0.393h1.349c0.204,0,0.388,0.186,0.388,0.393v12.157h5.537
	c0.225,0,0.389,0.186,0.389,0.393v1.137c0,0.207-0.164,0.393-0.389,0.393h-7.273c-0.225,0-0.389-0.186-0.389-0.393V128.625z"/>
<path d="M-42.029,128.625c0-0.207,0.164-0.393,0.389-0.393h4.658c2.514,0,4.577,2.068,4.577,4.569c0,2.564-2.063,4.652-4.557,4.652
	h-2.963v4.858c0,0.207-0.184,0.393-0.388,0.393h-1.328c-0.225,0-0.389-0.186-0.389-0.393V128.625z M-37.104,135.427
	c1.409,0,2.595-1.158,2.595-2.646c0-1.406-1.186-2.481-2.595-2.481h-2.82v5.127H-37.104z"/>
<path d="M-29.408,128.625c0-0.207,0.164-0.393,0.389-0.393h8.173c0.225,0,0.388,0.186,0.388,0.393v1.158
	c0,0.207-0.163,0.393-0.388,0.393h-6.457v4.218h5.456c0.204,0,0.388,0.186,0.388,0.393v1.158c0,0.227-0.184,0.393-0.388,0.393
	h-5.456v4.445h6.457c0.225,0,0.388,0.186,0.388,0.393v1.137c0,0.207-0.163,0.393-0.388,0.393h-8.173
	c-0.225,0-0.389-0.186-0.389-0.393V128.625z"/>
<g>
	<path d="M-107.844,172.639c0,0.07,0.09,0.229,0.09,0.52c0,0.16-0.029,0.37-0.13,0.63c-0.43,1.09-1.409,2.159-2.498,2.589
		c-0.26,0.1-0.49,0.149-0.689,0.149c-0.47,0-0.75-0.27-0.75-0.699c0-0.24,0.09-0.54,0.28-0.859c0.689-1.18,2.108-1.989,3.317-2.409
		c-0.079-0.199-2.078,0.01-2.269-0.649c-0.01-0.04-0.02-0.09-0.02-0.13c0-0.15,0.06-0.31,0.149-0.47
		c-1.809,0.439-5.047,1.029-8.385,1.299c-1.6,0.13-3.198,0.2-4.638,0.2c-1.999,0-3.678-0.14-4.588-0.5
		c-0.43-0.159-0.879-0.43-1.039-0.729c-0.03-0.05-0.04-0.1-0.04-0.149c0-0.09,0.05-0.19,0.13-0.25c0.04-0.03,0.08-0.05,0.14-0.05
		c0.08,0,0.17,0.04,0.271,0.149c0.149,0.17,0.21,0.37,0.38,0.56c0.189,0.2,0.489,0.37,0.799,0.45c0.96,0.22,2.359,0.37,4.188,0.37
		c1.26,0,2.729-0.07,4.378-0.23c2.688-0.25,5.927-0.63,8.546-1.349c0.52-0.7,1.639-1.449,2.158-1.449c0.021,0,0.05,0.01,0.07,0.01
		c0.21,0.04,0.46,0.229,0.52,0.42c0.01,0.02,0.01,0.04,0.01,0.069c0,0.16-0.12,0.41-0.279,0.41c-0.09,0-0.181-0.061-0.271-0.24
		c-0.029-0.069-0.1-0.1-0.199-0.1c-0.55,0-1.949,0.989-1.949,1.539v0.02c0.02,0.24,0.52,0.32,1.02,0.36
		c0.51,0.05,1.02,0.06,1.179,0.34c0.67-0.24,2.31-0.59,3.019-0.689c0.04,0,0.07-0.011,0.101-0.011c0.09,0,0.14,0.021,0.14,0.04
		c0,0.021-0.04,0.04-0.15,0.061c-0.619,0.09-2.338,0.47-2.968,0.739C-107.844,172.608-107.844,172.619-107.844,172.639z
		 M-107.984,173.118c0-0.13-0.03-0.26-0.1-0.38c-1.069,0.33-2.709,1.29-3.309,2.299c-0.189,0.32-0.27,0.58-0.27,0.78
		c0,0.329,0.22,0.499,0.56,0.499c0.17,0,0.37-0.04,0.579-0.119c1.09-0.42,2.169-1.659,2.499-2.799
		C-107.994,173.309-107.984,173.208-107.984,173.118z"/>
	<path d="M-105.082,172.948c-0.12,0-0.25-0.09-0.25-0.229c0-0.03,0.01-0.06,0.02-0.09c0.04-0.12,0.08-0.23,0.131-0.35
		c0.159-0.33,0.39-0.62,0.669-0.87c0.16-0.14,0.37-0.21,0.56-0.21c0.23,0,0.45,0.101,0.55,0.271c0.01,0.01,0.01,0.01,0.021,0.01
		c0.04,0,0.09-0.061,0.14-0.07c0.01,0,0.03-0.01,0.04-0.01c0.08,0,0.12,0.09,0.12,0.18c0,0.03,0,0.061-0.011,0.08
		c-0.069,0.22-0.499,0.949-0.499,1.359c0,0.16,0.069,0.27,0.26,0.27h0.01c1.359,0,3.108-1.449,3.259-1.509h0.01
		c0.01,0,0.01,0,0.01,0.01c0,0,0,0.01-0.01,0.021c-0.63,0.64-2.319,1.608-3.209,1.648h-0.06c-0.39,0-0.52-0.239-0.52-0.529
		c0-0.27,0.1-0.58,0.21-0.8c-0.35,0.23-1.029,0.7-1.369,0.81C-105.032,172.948-105.051,172.948-105.082,172.948z M-104.772,172.438
		c0,0.03,0.01,0.04,0.021,0.04c0.01,0,0.029-0.01,0.05-0.02c0.409-0.25,0.64-0.39,0.989-0.729c-0.06-0.101-0.14-0.141-0.22-0.141
		c-0.04,0-0.09,0.011-0.14,0.04c-0.221,0.11-0.54,0.46-0.65,0.66C-104.732,172.299-104.772,172.389-104.772,172.438z"/>
	<path d="M-100.072,175.388c-0.529-0.051-0.67-0.49-0.67-0.94c0-0.979,0.71-2.918,1.05-3.808c0.68-1.729,1.409-3.228,2.738-4.707
		c0.14-0.15,0.28-0.29,0.439-0.41c0.17-0.13,0.34-0.18,0.5-0.18c0.11,0,0.22,0.03,0.3,0.09c0.14,0.1,0.19,0.26,0.19,0.45
		c0,0.56-0.44,1.359-0.61,1.639c-0.609,1.069-2.039,3.049-3.338,3.948c-0.11,0.069-0.229,0.17-0.27,0.26
		c-0.29,0.729-0.61,1.599-0.71,2.658c0,0.04-0.01,0.08-0.01,0.13c0,0.31,0.109,0.63,0.46,0.64h0.029c1.17,0,3.698-2.988,4.048-3.288
		c0.061-0.05,0.09-0.06,0.16-0.1h0.01c0.03,0,0.05,0.02,0.05,0.05v0.01c-0.069,0.08-0.05,0.06-0.1,0.11
		c-0.699,0.6-3.028,3.448-4.197,3.448H-100.072z M-99.453,171.13c0,0.02,0.021,0.04,0.04,0.04c0.021,0,0.04-0.011,0.051-0.021
		c1.249-0.93,2.259-2.358,3.038-3.737c0.109-0.2,0.569-1.04,0.569-1.479c0-0.12-0.03-0.21-0.12-0.25
		c-0.02-0.01-0.04-0.01-0.069-0.01c-0.101,0-0.23,0.06-0.38,0.21c-0.15,0.159-0.29,0.319-0.43,0.489
		c-1.06,1.27-1.81,2.858-2.529,4.357c-0.039,0.08-0.14,0.3-0.17,0.38V171.13z"/>
	<path d="M-92.824,171.289c-0.58,0.23-1.149,0.42-1.749,0.42c-0.16,0-0.32-0.01-0.48-0.04c-0.01,0.04-0.02,0.061-0.02,0.07
		c0.03,0.1,0.04,0.2,0.04,0.3c0,0.26-0.09,0.51-0.24,0.739c-0.24,0.39-0.55,0.71-0.919,0.979c-0.12,0.09-0.25,0.141-0.351,0.141
		c-0.159,0-0.27-0.11-0.27-0.32c0-0.07,0.01-0.17,0.05-0.27c0.2-0.56,1.229-2.159,1.689-2.259c0.02,0,0.03-0.01,0.05-0.01
		c0.09,0,0.15,0.06,0.15,0.14c0,0.03-0.011,0.07-0.04,0.1c-0.021,0.04-0.061,0.08-0.08,0.11c0.01,0.04,0.04,0.05,0.069,0.05h0.051
		c0.09,0.01,0.18,0.01,0.27,0.01c0.369,0,0.72-0.069,1.069-0.21c0.279-0.109,0.569-0.229,0.85-0.34c0.069-0.029,0.14-0.06,0.22-0.06
		c0.05,0,0.09,0.01,0.14,0.06c0.05,0.061,0.07,0.12,0.07,0.181c0,0.06-0.021,0.13-0.05,0.189c-0.08,0.17-0.16,0.319-0.24,0.479
		c-0.03,0.05-0.07,0.101-0.08,0.19c0.22-0.17,0.56-0.49,0.79-0.56c0.04-0.011,0.08-0.021,0.109-0.021c0.2,0,0.25,0.22,0.25,0.42v0.3
		c0,0.46,0.05,0.989,0.6,0.989h0.04c0.819-0.04,2.049-0.919,2.469-1.299c0.01,0,0.021-0.011,0.021-0.011
		c0.039,0,0.06,0.051,0.06,0.08c0,0.011,0,0.021-0.01,0.03c-0.51,0.5-1.81,1.359-2.529,1.39h-0.05c-0.479,0-0.81-0.311-0.839-0.8
		c-0.011-0.09-0.011-0.17-0.011-0.25c0-0.18,0.011-0.33,0.011-0.439c0-0.11-0.011-0.17-0.061-0.17c-0.06,0-0.149,0.069-0.31,0.199
		c-0.859,0.71-0.899,0.85-1.399,1.77c-0.05,0.09-0.109,0.21-0.22,0.21c-0.03,0-0.06,0-0.09-0.021
		c-0.07-0.029-0.101-0.09-0.101-0.159c0-0.091,0.061-0.2,0.08-0.261c0.311-0.819,0.61-1.249,0.99-1.979V171.289z M-95.292,172.02
		c0-0.061-0.011-0.11-0.04-0.17c-0.25,0.22-0.93,1.309-0.989,1.589c0.39-0.26,0.869-0.729,0.989-1.18
		C-95.313,172.179-95.292,172.099-95.292,172.02z"/>
	<path d="M-84.462,175.797c-0.03,0.29-0.05,0.58-0.05,0.88c0,0.17,0.01,0.34,0.02,0.51v0.08c0,0.04,0,0.079-0.04,0.09
		c-0.01,0-0.02,0.01-0.029,0.01c-0.04,0-0.061-0.04-0.08-0.07c-0.051-0.13-0.07-0.27-0.07-0.409v-0.84
		c0.11-1.719,0.27-3.438,0.42-5.157c0.149-1.749,0.33-3.498,0.5-5.237c0.02-0.18,0.02-0.359,0.029-0.529c0-0.07,0.01-0.15,0.03-0.22
		c0.02-0.08,0.08-0.101,0.14-0.101c0.061,0,0.12,0.021,0.141,0.061c0.05,0.05,0.05,0.629,0.05,0.979v0.239
		c-0.07,1.21-0.25,2.399-0.39,3.599c-0.15,1.189-0.3,2.378-0.431,3.567C-84.313,174.098-84.382,174.947-84.462,175.797z"/>
	<path d="M-80.323,174.108c-0.1,0-0.17-0.091-0.17-0.2c0-0.04,0-0.08,0.021-0.12c0.21-0.59,0.43-1.18,0.659-1.759
		c0.63-1.529,1.439-2.938,2.559-4.168c0.311-0.33,0.84-0.84,1.29-0.959c0.04-0.011,0.069-0.011,0.109-0.011
		c0.2,0,0.311,0.16,0.311,0.36c0,0.08-0.011,0.17-0.051,0.25c-0.05,0.13-0.119,0.26-0.199,0.38c-0.84,1.379-1.869,2.608-3.049,3.697
		c-0.3,0.271-0.51,0.56-0.649,0.93c-0.05,0.14-0.11,0.27-0.13,0.43l1.1-0.999c0.18-0.15,0.51-0.351,0.789-0.351
		c0.101,0,0.19,0.03,0.27,0.091c0.28,0.239,0.16,0.549,0.23,0.549h0.02c0.82-0.3,1.47-0.39,2.319-0.449
		c0.069-0.01,0.12-0.01,0.159-0.01c0.021,0,0.03,0.01,0.03,0.029c0,0.011-0.01,0.021-0.03,0.021c-0.289,0.04-0.449,0.05-0.719,0.09
		c-0.561,0.09-1.08,0.2-1.63,0.439c-0.13,0.061-0.21,0.12-0.249,0.271c-0.36,1.239-0.979,1.929-1.829,2.798
		c-0.09,0.101-0.22,0.18-0.34,0.24c-0.08,0.05-0.17,0.069-0.26,0.069c-0.23,0-0.43-0.169-0.43-0.479c0-0.239,0.119-0.56,0.439-0.949
		c0.8-0.96,1.239-1.31,2.169-1.919c0.04-0.03,0.06-0.03,0.06-0.07c0.01-0.05,0.01-0.119,0.01-0.18v-0.07
		c-0.029-0.159-0.119-0.27-0.25-0.27c-0.05,0-0.1,0.01-0.149,0.04c-0.869,0.399-1.629,1.399-2.199,2.148
		C-80.182,174.068-80.252,174.108-80.323,174.108z M-77.574,172.599c0,0-0.01-0.01-0.021-0.01c-0.029,0-0.119,0.07-0.159,0.1
		c-0.71,0.46-1.319,1.029-1.81,1.709c-0.27,0.37-0.39,0.67-0.39,0.859c0,0.131,0.061,0.2,0.16,0.2c0.109,0,0.279-0.08,0.479-0.27
		c0.689-0.649,1.239-1.39,1.629-2.259c0.04-0.1,0.07-0.2,0.101-0.3C-77.583,172.619-77.574,172.608-77.574,172.599z
		 M-78.923,171.399c0.03-0.02,0.061-0.04,0.08-0.07c1.09-1.129,2.219-2.398,2.948-3.808c0.04-0.08,0.05-0.18,0.08-0.27
		c-0.02-0.01-0.04-0.021-0.05-0.03c-0.07,0.04-0.15,0.07-0.21,0.12c-0.16,0.13-0.33,0.26-0.47,0.409
		C-77.524,168.841-78.313,170.061-78.923,171.399z"/>
	<path d="M-74.962,172.948c-0.12,0-0.25-0.09-0.25-0.229c0-0.03,0.01-0.06,0.02-0.09c0.04-0.12,0.08-0.23,0.131-0.35
		c0.159-0.33,0.39-0.62,0.669-0.87c0.16-0.14,0.37-0.21,0.56-0.21c0.23,0,0.45,0.101,0.55,0.271c0.01,0.01,0.01,0.01,0.021,0.01
		c0.04,0,0.09-0.061,0.14-0.07c0.01,0,0.03-0.01,0.04-0.01c0.08,0,0.12,0.09,0.12,0.18c0,0.03,0,0.061-0.011,0.08
		c-0.069,0.22-0.499,0.949-0.499,1.359c0,0.16,0.069,0.27,0.26,0.27h0.01c1.359,0,3.108-1.449,3.259-1.509h0.01
		c0.01,0,0.01,0,0.01,0.01c0,0,0,0.01-0.01,0.021c-0.63,0.64-2.319,1.608-3.209,1.648h-0.06c-0.39,0-0.52-0.239-0.52-0.529
		c0-0.27,0.1-0.58,0.21-0.8c-0.35,0.23-1.029,0.7-1.369,0.81C-74.913,172.948-74.932,172.948-74.962,172.948z M-74.653,172.438
		c0,0.03,0.01,0.04,0.021,0.04c0.01,0,0.029-0.01,0.05-0.02c0.409-0.25,0.64-0.39,0.989-0.729c-0.06-0.101-0.14-0.141-0.22-0.141
		c-0.04,0-0.09,0.011-0.14,0.04c-0.221,0.11-0.54,0.46-0.65,0.66C-74.613,172.299-74.653,172.389-74.653,172.438z"/>
	<path d="M-70.422,174.718c0-0.85,0.919-1.979,1.029-2.389c0-0.021,0.01-0.04,0.01-0.061c0-0.27-0.569-0.249-0.819-0.419
		c-0.05-0.051-0.08-0.13-0.08-0.23c0-0.18,0.09-0.409,0.26-0.609c0.061-0.061,0.141-0.09,0.22-0.09c0.17,0,0.34,0.12,0.34,0.31
		c0,0.09-0.029,0.189-0.13,0.3c0.351,0.12,0.69,0.24,0.69,0.62c0,0.06,0,0.119-0.021,0.189c-0.06,0.32-1.279,1.629-1.279,2.488
		v0.061c0.021,0.22,0.13,0.39,0.37,0.449c0.04,0.011,0.09,0.021,0.14,0.021c1.169,0,4.018-3.038,4.798-3.479
		c0.069-0.04,0.14-0.069,0.209-0.109c0.021,0.02,0.03,0.04,0.04,0.05c-0.04,0.04-0.079,0.09-0.13,0.109
		c-1.219,0.76-3.697,3.559-4.957,3.559c-0.05,0-0.09,0-0.13-0.01c-0.33-0.061-0.449-0.24-0.52-0.46
		C-70.413,174.928-70.422,174.827-70.422,174.718z"/>
	<path d="M-65.363,174.108c-0.1,0-0.17-0.091-0.17-0.2c0-0.04,0-0.08,0.021-0.12c0.21-0.59,0.43-1.18,0.659-1.759
		c0.63-1.529,1.439-2.938,2.559-4.168c0.311-0.33,0.84-0.84,1.29-0.959c0.04-0.011,0.069-0.011,0.109-0.011
		c0.2,0,0.31,0.16,0.31,0.36c0,0.08-0.01,0.17-0.05,0.25c-0.05,0.13-0.119,0.26-0.199,0.38c-0.84,1.379-1.869,2.608-3.049,3.697
		c-0.3,0.271-0.51,0.56-0.649,0.93c-0.05,0.14-0.11,0.27-0.13,0.43l1.1-0.999c0.18-0.15,0.51-0.351,0.789-0.351
		c0.101,0,0.19,0.03,0.271,0.091c0.279,0.239,0.159,0.549,0.229,0.549h0.02c0.82-0.3,1.47-0.39,2.319-0.449
		c0.069-0.01,0.12-0.01,0.159-0.01c0.021,0,0.03,0.01,0.03,0.029c0,0.011-0.01,0.021-0.03,0.021c-0.289,0.04-0.449,0.05-0.719,0.09
		c-0.561,0.09-1.08,0.2-1.63,0.439c-0.13,0.061-0.21,0.12-0.249,0.271c-0.36,1.239-0.979,1.929-1.829,2.798
		c-0.09,0.101-0.221,0.18-0.34,0.24c-0.08,0.05-0.17,0.069-0.26,0.069c-0.23,0-0.43-0.169-0.43-0.479
		c0-0.239,0.119-0.56,0.439-0.949c0.8-0.96,1.239-1.31,2.169-1.919c0.04-0.03,0.06-0.03,0.06-0.07c0.01-0.05,0.01-0.119,0.01-0.18
		v-0.07c-0.029-0.159-0.119-0.27-0.25-0.27c-0.05,0-0.1,0.01-0.149,0.04c-0.869,0.399-1.629,1.399-2.199,2.148
		C-65.222,174.068-65.292,174.108-65.363,174.108z M-62.614,172.599c0,0-0.01-0.01-0.021-0.01c-0.029,0-0.119,0.07-0.159,0.1
		c-0.71,0.46-1.319,1.029-1.81,1.709c-0.27,0.37-0.39,0.67-0.39,0.859c0,0.131,0.061,0.2,0.16,0.2c0.109,0,0.279-0.08,0.479-0.27
		c0.689-0.649,1.239-1.39,1.629-2.259c0.04-0.1,0.07-0.2,0.101-0.3C-62.624,172.619-62.614,172.608-62.614,172.599z
		 M-63.963,171.399c0.03-0.02,0.061-0.04,0.08-0.07c1.09-1.129,2.219-2.398,2.948-3.808c0.04-0.08,0.05-0.18,0.08-0.27
		c-0.02-0.01-0.04-0.021-0.05-0.03c-0.07,0.04-0.15,0.07-0.21,0.12c-0.16,0.13-0.33,0.26-0.47,0.409
		C-62.564,168.841-63.353,170.061-63.963,171.399z"/>
	<path d="M-59.553,173.748c-0.52,0-0.729-0.39-0.729-0.789c0-0.16,0.03-0.32,0.09-0.46c0.29-0.71,0.8-1.22,1.52-1.52
		c0.1-0.05,0.189-0.06,0.27-0.06c0.21,0,0.32,0.149,0.32,0.319c0,0.101-0.03,0.2-0.09,0.28c-0.101,0.14-0.2,0.29-0.34,0.38
		c-0.28,0.189-0.59,0.359-0.89,0.529c-0.09,0.05-0.19,0.08-0.29,0.08c-0.06,0-0.12-0.01-0.189-0.03
		c-0.12,0.181-0.17,0.36-0.17,0.521c0,0.319,0.229,0.539,0.64,0.539c0.109,0,0.22-0.01,0.34-0.04
		c0.979-0.239,2.578-1.109,3.348-1.699c0.021-0.02,0.04-0.029,0.061-0.029c0.01,0,0.02,0.01,0.02,0.029
		c0,0.011-0.01,0.03-0.04,0.061c-0.72,0.63-2.778,1.839-3.808,1.889H-59.553z M-59.712,172.199c0.43-0.13,1.069-0.64,1.119-0.89
		C-59.073,171.459-59.393,171.799-59.712,172.199z"/>
	<path d="M-56.163,174.718c0-0.85,0.919-1.979,1.029-2.389c0-0.021,0.01-0.04,0.01-0.061c0-0.27-0.569-0.249-0.819-0.419
		c-0.05-0.051-0.08-0.13-0.08-0.23c0-0.18,0.09-0.409,0.26-0.609c0.061-0.061,0.141-0.09,0.22-0.09c0.17,0,0.34,0.12,0.34,0.31
		c0,0.09-0.029,0.189-0.13,0.3c0.351,0.12,0.69,0.24,0.69,0.62c0,0.06,0,0.119-0.021,0.189c-0.06,0.32-1.279,1.629-1.279,2.488
		v0.061c0.021,0.22,0.13,0.39,0.37,0.449c0.04,0.011,0.09,0.021,0.14,0.021c1.169,0,4.018-3.038,4.798-3.479
		c0.069-0.04,0.14-0.069,0.209-0.109c0.021,0.02,0.03,0.04,0.04,0.05c-0.04,0.04-0.079,0.09-0.13,0.109
		c-1.219,0.76-3.697,3.559-4.957,3.559c-0.05,0-0.09,0-0.13-0.01c-0.33-0.061-0.449-0.24-0.52-0.46
		C-56.153,174.928-56.163,174.827-56.163,174.718z"/>
	<path d="M-46.543,175.797c-0.03,0.29-0.05,0.58-0.05,0.88c0,0.17,0.01,0.34,0.02,0.51v0.08c0,0.04,0,0.079-0.04,0.09
		c-0.01,0-0.02,0.01-0.029,0.01c-0.04,0-0.061-0.04-0.08-0.07c-0.051-0.13-0.07-0.27-0.07-0.409v-0.84
		c0.11-1.719,0.27-3.438,0.42-5.157c0.149-1.749,0.33-3.498,0.5-5.237c0.02-0.18,0.02-0.359,0.029-0.529
		c0-0.07,0.011-0.15,0.03-0.22c0.02-0.08,0.08-0.101,0.14-0.101c0.061,0,0.12,0.021,0.141,0.061c0.05,0.05,0.05,0.629,0.05,0.979
		v0.239c-0.07,1.21-0.25,2.399-0.39,3.599c-0.15,1.189-0.3,2.378-0.431,3.567C-46.394,174.098-46.463,174.947-46.543,175.797z"/>
	<path d="M-42.353,176.526c-0.47,0-0.75-0.27-0.75-0.699c0-0.24,0.09-0.54,0.28-0.859c0.689-1.18,2.108-1.979,3.317-2.409
		c-0.079-0.189-2.078,0.021-2.269-0.649c-0.01-0.04-0.02-0.09-0.02-0.13c0-0.819,1.739-2.139,2.438-2.139
		c0.03,0,0.06,0.01,0.08,0.01c0.21,0.03,0.46,0.22,0.52,0.42c0.01,0.02,0.01,0.04,0.01,0.069c0,0.15-0.12,0.4-0.279,0.4
		c-0.09,0-0.181-0.061-0.271-0.24c-0.029-0.069-0.1-0.1-0.199-0.1c-0.55,0-1.949,0.999-1.949,1.539v0.02
		c0.02,0.24,0.52,0.32,1.02,0.37c0.51,0.04,1.02,0.05,1.18,0.33c0.669-0.24,2.309-0.59,3.018-0.68c0.05-0.01,0.09-0.01,0.13-0.01
		c0.07,0,0.11,0.01,0.11,0.029c0,0.021-0.04,0.04-0.15,0.061c-0.619,0.1-2.338,0.479-2.968,0.749
		c-0.021,0.011-0.021,0.021-0.021,0.04c0,0.061,0.09,0.22,0.09,0.51c0,0.16-0.029,0.37-0.13,0.63
		c-0.43,1.09-1.409,2.159-2.498,2.589C-41.923,176.477-42.154,176.526-42.353,176.526z M-42.943,175.817
		c0,0.329,0.22,0.499,0.56,0.499c0.16,0,0.359-0.04,0.569-0.119c1.1-0.41,2.179-1.659,2.509-2.789c0.03-0.09,0.04-0.189,0.04-0.279
		c0-0.13-0.03-0.261-0.11-0.391c-1.059,0.34-2.708,1.29-3.298,2.299C-42.863,175.357-42.943,175.617-42.943,175.817z"/>
	<path d="M-39.461,179.335c-0.06,0-0.12-0.04-0.14-0.189v-0.021c0-0.06,0.02-0.109,0.04-0.149c0.949-2.379,1.979-4.718,3.298-6.917
		c0.23-0.379,0.5-0.749,0.77-1.109c0.13-0.17,0.41-0.479,0.65-0.509h0.029c0.11,0,0.18,0.069,0.18,0.169c0,0.03,0,0.051-0.01,0.07
		c-0.029,0.07-0.069,0.13-0.12,0.19c-0.779,1.049-1.398,2.198-2.019,3.338c-0.01,0.02-0.02,0.05-0.02,0.07
		c0.01,0.02,0.02,0.02,0.029,0.039c0.75-0.989,1.47-1.858,2.409-2.678c0.26-0.23,0.8-0.65,1.149-0.729
		c0.06-0.011,0.109-0.021,0.159-0.021c0.24,0,0.34,0.15,0.34,0.37c0,0.31-0.189,0.76-0.43,1.089c0.729-0.25,1.149-0.35,2.589-0.56
		c0.09-0.01,0.16-0.02,0.21-0.02c0.1,0,0.14,0.02,0.14,0.04c0,0.04-0.09,0.079-0.17,0.09c-0.3,0.02-2.318,0.42-2.918,0.749
		c-0.67,0.89-1,1.43-1.939,2.1c-0.13,0.09-0.239,0.13-0.329,0.13c-0.13,0-0.21-0.091-0.21-0.23c0-0.09,0.02-0.189,0.08-0.3
		c0.17-0.33,0.409-0.619,0.669-0.879c0.47-0.48,0.81-0.74,1.279-0.97c0.29-0.19,0.54-0.779,0.62-1.09
		c0.02-0.08,0.05-0.149,0.05-0.189c0-0.03-0.02-0.04-0.05-0.04c-0.01,0-0.03,0-0.061,0.01c-0.549,0.14-1.269,0.79-1.648,1.18
		c-1.31,1.329-2.409,2.809-3.309,4.428c-0.319,0.569-0.579,1.159-0.859,1.749c-0.09,0.189-0.09,0.43-0.319,0.729
		C-39.332,179.285-39.391,179.335-39.461,179.335z M-34.014,173.129c0-0.011-0.01-0.021-0.03-0.021c-0.02,0-0.05,0.01-0.09,0.03
		c-0.43,0.279-0.84,0.689-1.069,1.02c-0.02,0.029-0.04,0.069-0.04,0.1c0,0.01,0.01,0.03,0.03,0.03c0.02,0,0.05-0.01,0.09-0.03
		c0.28-0.26,0.76-0.619,1.05-1.029C-34.034,173.188-34.014,173.158-34.014,173.129z"/>
	<path d="M-30.563,172.959c-0.13,0-0.26-0.091-0.26-0.23c0-0.03,0.01-0.06,0.02-0.09c0.04-0.12,0.07-0.24,0.13-0.35
		c0.16-0.34,0.39-0.63,0.66-0.87c0.159-0.14,0.369-0.209,0.569-0.209c0.229,0,0.439,0.09,0.54,0.26c0.01,0.01,0.02,0.01,0.029,0.01
		c0.03,0,0.091-0.05,0.131-0.07h0.029c0.09,0,0.14,0.101,0.14,0.19c0,0.029,0,0.05-0.01,0.069c-0.05,0.15-0.229,0.45-0.229,0.82
		v0.029c0.02,0.649,0.33,0.78,0.879,0.78h0.07c4.628-0.051,13.063-2.14,17.061-2.14h0.32c0.569,0.021,2.698,0.11,3.018,0.72
		c0.021,0.05,0.04,0.101,0.04,0.141c0,0.14-0.1,0.27-0.249,0.27c-0.08,0-0.19-0.05-0.3-0.17c-0.391-0.43-1.1-0.55-1.649-0.62
		c-0.35-0.04-0.739-0.06-1.17-0.06c-4.438,0-12.763,1.929-17.07,2.019h-0.09c-0.27,0-0.59-0.04-0.8-0.22
		c-0.27-0.229-0.38-0.64-0.38-0.959c0-0.051,0-0.101,0.011-0.15c-0.351,0.23-1.04,0.7-1.37,0.819
		C-30.513,172.959-30.543,172.959-30.563,172.959z M-30.263,172.449c0,0.02,0,0.04,0.02,0.04c0.011,0,0.021-0.011,0.04-0.021
		c0.42-0.25,0.64-0.399,1-0.729c-0.07-0.11-0.141-0.15-0.22-0.15c-0.04,0-0.091,0.021-0.141,0.04c-0.22,0.11-0.539,0.46-0.659,0.67
		C-30.233,172.309-30.263,172.398-30.263,172.449z"/>
</g>
<path d="M-15.299,128.217h-1.348c-0.232,0-0.4,0.377-0.4,0.795v17.311v2.47h-0.021l0.021,0.002v7.488h-0.021l-9.139-10.57h-0.526
	c-0.21,0-0.399,0.168-0.399,0.379v14.172c0,0.21,0.189,0.399,0.399,0.399h1.327c0.231,0,0.399-0.189,0.399-0.399v-10.256h0.021
	l9.139,10.865h0.548c0.21,0,0.399-0.168,0.399-0.379V148.93v-2.606v-17.311C-14.9,128.595-15.089,128.217-15.299,128.217z"/>
<path d="M-118.752,128.231h-4.699c-0.204,0-0.368,0.186-0.368,0.393v1.255v12.432v17.591c0,0.512,0.183,0.971,0.386,0.971h1.341
	c0.204,0,0.387-0.459,0.387-0.971v-17.198h2.954c3.943,0,7.172-3.246,7.172-7.257C-111.581,131.478-114.809,128.231-118.752,128.231
	z M-119.039,140.74h-2.668v-10.544h2.668c3.004,0,5.189,2.212,5.189,5.251C-113.849,138.507-116.035,140.74-119.039,140.74z"/>
<path d="M-50.999,142.705c-2.965,0-5.316-2.565-5.316-5.584c0-3.072,2.352-5.637,5.316-5.637c2.967,0,5.318,2.565,5.318,5.637
	C-45.68,140.14-48.032,142.705-50.999,142.705z M-50.999,133.22c-1.949,0-3.473,1.736-3.473,3.9c0,2.111,1.523,3.821,3.473,3.821
	c1.951,0,3.475-1.71,3.475-3.821C-47.524,134.956-49.047,133.22-50.999,133.22z"/>
<g>
	<path d="M-50.999,130.034c-0.672,0-1.195-0.525-1.195-1.197c0-0.651,0.523-1.197,1.195-1.197c0.652,0,1.197,0.546,1.197,1.197
		C-49.801,129.509-50.346,130.034-50.999,130.034z"/>
</g>
<path d="M372.318,100.386h14.88l-0.657,2.89c0,0-1.727,0.06-4.026,0.06c-0.329,6.255-2.547,11.856-6.905,15.397
	c3.535,3.658,7.479,6.076,11.673,6.076c2.465,0,4.189-0.885,5.508-2.36l3.452,2.539c-2.547,1.887-5.015,2.653-8.88,2.653
	c-5.918,0-11.507-2.479-16.191-6.315c-2.224,0.827-4.771,1.358-7.648,1.358c-11.014,0-15.862-5.133-15.862-10.91
	c0-4.779,3.286-10.029,9.206-13.274c-0.574-2.243-0.824-4.425-0.824-6.431c0-7.314,3.62-12.804,12.331-12.804
	c6.577,0,9.455,3.424,9.455,7.081c0,2.479-1.316,5.015-3.699,6.725l-4.768-2.653c1.726-1.532,2.549-3.306,2.549-4.837
	c0-1.888-1.233-3.362-3.617-3.362c-3.698,0-5.26,3.128-5.26,7.607c0,7.316,4.108,18.347,10.108,26.075
	c1.645-2.832,1.976-7.137,2.055-12.565c-1.151,0-2.301,0-3.532-0.06L372.318,100.386z M368.783,119.203
	c-5.097-4.895-8.957-11.268-11.011-17.52c-1.894,2.361-2.717,5.252-2.717,8.023c0,5.311,3.205,10.088,9.29,10.088
	C366.075,119.795,367.552,119.619,368.783,119.203z"/>
<path d="M387.922,82.218c-0.238-0.825,0.235-1.416,1.062-1.416h3.95c0.474,0,0.944,0.412,1.064,0.823l7.138,27.078h0.235
	l9.615-27.843c0.118-0.352,0.532-0.647,1.003-0.647h1.063c0.471,0,0.885,0.296,1.002,0.647l9.736,27.843h0.232l7.022-27.078
	c0.117-0.411,0.589-0.823,1.06-0.823h3.955c0.824,0,1.295,0.591,1.06,1.416l-11.149,39.642c-0.117,0.471-0.589,0.824-1.063,0.824
	h-0.942c-0.413,0-0.884-0.293-1.002-0.646l-10.382-29.32h-0.296l-10.204,29.32c-0.121,0.354-0.592,0.646-1.006,0.646h-0.943
	c-0.471,0-0.943-0.354-1.061-0.824L387.922,82.218z"/>
<path d="M321.107,82.276c0-0.581,0.459-1.101,1.089-1.101h13.05c7.041,0,12.822,5.792,12.822,12.801
	c0,7.182-5.781,13.033-12.765,13.033h-8.3v13.61c0,0.581-0.516,1.101-1.088,1.101h-3.72c-0.63,0-1.089-0.52-1.089-1.101V82.276z
	 M334.904,101.334c3.947,0,7.27-3.246,7.27-7.416c0-3.938-3.322-6.95-7.27-6.95h-7.9v14.366H334.904z"/>
<text transform="matrix(1 0 0 1 311.7051 107.7817)"><tspan x="0" y="0" font-family="'modernlinetail'" font-size="19.0517">E</tspan><tspan x="44.352" y="0" font-family="'modernline'" font-size="19.0517">sthetic</tspan><tspan x="96.229" y="0" font-family="'modernlinetail'" font-size="19.0517">s</tspan></text>
<g>
	<defs>
		<path id="SVGID_1_" d="M372.318,100.386h14.88l-0.657,2.89c0,0-1.727,0.06-4.026,0.06c-0.329,6.255-2.547,11.856-6.905,15.397
			c3.535,3.658,7.479,6.076,11.673,6.076c2.465,0,4.189-0.885,5.508-2.36l3.452,2.539c-2.547,1.887-5.015,2.653-8.88,2.653
			c-5.918,0-11.507-2.479-16.191-6.315c-2.224,0.827-4.771,1.358-7.648,1.358c-11.014,0-15.862-5.133-15.862-10.91
			c0-4.779,3.286-10.029,9.206-13.274c-0.574-2.243-0.824-4.425-0.824-6.431c0-7.314,3.62-12.804,12.331-12.804
			c6.577,0,9.455,3.424,9.455,7.081c0,2.479-1.316,5.015-3.699,6.725l-4.768-2.653c1.726-1.532,2.549-3.306,2.549-4.837
			c0-1.888-1.233-3.362-3.617-3.362c-3.698,0-5.26,3.128-5.26,7.607c0,7.316,4.108,18.347,10.108,26.075
			c1.645-2.832,1.976-7.137,2.055-12.565c-1.151,0-2.301,0-3.532-0.06L372.318,100.386z M368.783,119.203
			c-5.097-4.895-8.957-11.268-11.011-17.52c-1.894,2.361-2.717,5.252-2.717,8.023c0,5.311,3.205,10.088,9.29,10.088
			C366.075,119.795,367.552,119.619,368.783,119.203z"/>
	</defs>
	<clipPath id="SVGID_2_">
		<use xlink:href="#SVGID_1_"  overflow="visible"/>
	</clipPath>
	<g clip-path="url(#SVGID_2_)">
		<text transform="matrix(1 0 0 1 311.7051 107.7813)"><tspan x="0" y="0" fill="#FFFFFF" font-family="'modernlinetail'" font-size="19.0517">E</tspan><tspan x="44.352" y="0" fill="#FFFFFF" font-family="'modernline'" font-size="19.0517">sthetic</tspan><tspan x="96.229" y="0" fill="#FFFFFF" font-family="'modernlinetail'" font-size="19.0517">s</tspan></text>
	</g>
</g>
<g>
	<defs>
		<path id="SVGID_3_" d="M387.922,82.218c-0.238-0.825,0.235-1.416,1.062-1.416h3.95c0.474,0,0.944,0.412,1.064,0.823l7.138,27.078
			h0.235l9.615-27.843c0.118-0.352,0.532-0.647,1.003-0.647h1.063c0.471,0,0.885,0.296,1.002,0.647l9.736,27.843h0.232l7.022-27.078
			c0.117-0.411,0.589-0.823,1.06-0.823h3.955c0.824,0,1.295,0.591,1.06,1.416l-11.149,39.642c-0.117,0.471-0.589,0.824-1.063,0.824
			h-0.942c-0.413,0-0.884-0.293-1.002-0.646l-10.382-29.32h-0.296l-10.204,29.32c-0.121,0.354-0.592,0.646-1.006,0.646h-0.943
			c-0.471,0-0.943-0.354-1.061-0.824L387.922,82.218z"/>
	</defs>
	<clipPath id="SVGID_4_">
		<use xlink:href="#SVGID_3_"  overflow="visible"/>
	</clipPath>
	<g clip-path="url(#SVGID_4_)">
		<text transform="matrix(1 0 0 1 311.7051 107.7813)"><tspan x="0" y="0" fill="#FFFFFF" font-family="'modernlinetail'" font-size="19.0517">E</tspan><tspan x="44.352" y="0" fill="#FFFFFF" font-family="'modernline'" font-size="19.0517">sthetic</tspan><tspan x="96.229" y="0" fill="#FFFFFF" font-family="'modernlinetail'" font-size="19.0517">s</tspan></text>
	</g>
</g>
<g>
	<defs>
		<path id="SVGID_5_" d="M321.107,82.276c0-0.581,0.459-1.101,1.089-1.101h13.05c7.041,0,12.822,5.792,12.822,12.801
			c0,7.182-5.781,13.033-12.765,13.033h-8.3v13.61c0,0.581-0.516,1.101-1.088,1.101h-3.72c-0.63,0-1.089-0.52-1.089-1.101V82.276z
			 M334.904,101.334c3.947,0,7.27-3.246,7.27-7.416c0-3.938-3.322-6.95-7.27-6.95h-7.9v14.366H334.904z"/>
	</defs>
	<clipPath id="SVGID_6_">
		<use xlink:href="#SVGID_5_"  overflow="visible"/>
	</clipPath>
	<g clip-path="url(#SVGID_6_)">
		<text transform="matrix(1 0 0 1 311.7051 107.7808)"><tspan x="0" y="0" fill="#FFFFFF" font-family="'modernlinetail'" font-size="19.0517">E</tspan><tspan x="44.352" y="0" fill="#FFFFFF" font-family="'modernline'" font-size="19.0517">sthetic</tspan><tspan x="96.229" y="0" fill="#FFFFFF" font-family="'modernlinetail'" font-size="19.0517">s</tspan></text>
	</g>
</g>
<text transform="matrix(1 0 0 1 99.1831 249.0586)" font-family="'modernline'" font-size="19.0517">p&amp;w</text>
<text transform="matrix(1 0 0 1 91.6011 261.4072)" font-family="'BrandonGrotesque-Bold'" font-size="12" letter-spacing="1">ESTHETICS</text>
<rect x="331.755" y="154.009" fill="none" stroke="#000000" stroke-width="0.5" stroke-miterlimit="10" width="128.975" height="77.666"/>
<text transform="matrix(1 0 0 1 357.335 81.1758)" font-family="'BrandonGrotesque-Bold'" font-size="68.7556" letter-spacing="6">+</text>
<g>
	<path d="M77.607,57.172h9.133l-0.403,1.773c0,0-1.06,0.037-2.471,0.037c-0.202,3.839-1.563,7.277-4.238,9.45
		c2.17,2.245,4.591,3.73,7.165,3.73c1.512,0,2.571-0.543,3.38-1.45l2.119,1.559c-1.563,1.158-3.078,1.629-5.45,1.629
		c-3.633,0-7.063-1.521-9.938-3.876c-1.364,0.507-2.929,0.833-4.695,0.833c-6.76,0-9.735-3.15-9.735-6.697
		c0-2.933,2.018-6.155,5.65-8.146c-0.352-1.377-0.505-2.716-0.505-3.947c0-4.489,2.222-7.858,7.568-7.858
		c4.037,0,5.802,2.101,5.802,4.346c0,1.522-0.807,3.078-2.27,4.127l-2.926-1.628c1.06-0.94,1.565-2.029,1.565-2.969
		c0-1.159-0.758-2.063-2.22-2.063c-2.271,0-3.229,1.919-3.229,4.669c0,4.491,2.521,11.26,6.204,16.003
		c1.01-1.737,1.212-4.38,1.261-7.711c-0.706,0-1.412,0-2.168-0.037L77.607,57.172z M75.438,68.721
		c-3.128-3.003-5.497-6.915-6.758-10.752c-1.162,1.449-1.667,3.223-1.667,4.924c0,3.26,1.967,6.192,5.701,6.192
		C73.775,69.085,74.682,68.978,75.438,68.721z"/>
	<path d="M84.24,32.271c-0.238-0.826,0.235-1.416,1.062-1.416h3.95c0.474,0,0.944,0.412,1.064,0.824l7.138,27.077h0.235
		l9.615-27.842c0.118-0.352,0.532-0.647,1.003-0.647h1.063c0.471,0,0.885,0.296,1.002,0.647l9.736,27.842h0.232l7.022-27.077
		c0.117-0.412,0.589-0.824,1.06-0.824h3.955c0.824,0,1.295,0.59,1.06,1.416l-11.149,39.642c-0.117,0.471-0.589,0.824-1.063,0.824
		h-0.942c-0.413,0-0.884-0.292-1.002-0.646l-10.382-29.32h-0.296l-10.204,29.32c-0.121,0.354-0.592,0.646-1.006,0.646H96.45
		c-0.471,0-0.943-0.353-1.061-0.824L84.24,32.271z"/>
	<path d="M38.164,31.496c0-0.581,0.459-1.101,1.089-1.101h13.049c7.042,0,12.823,5.792,12.823,12.801
		c0,7.183-5.781,13.034-12.765,13.034h-8.3v13.61c0,0.581-0.515,1.101-1.087,1.101h-3.72c-0.629,0-1.089-0.521-1.089-1.101V31.496z
		 M51.96,50.554c3.948,0,7.27-3.246,7.27-7.416c0-3.938-3.322-6.951-7.27-6.951h-7.9v14.366H51.96z"/>
	<rect x="33.333" y="70.484" width="104.333" height="12.552"/>
	<g>
		<path fill="#FFFFFF" d="M62.019,79.583c0,0.443,0.333,0.748,0.887,0.748c0.152,0,0.305-0.014,0.471-0.056
			c1.358-0.333,3.575-1.538,4.642-2.355c0.028-0.028,0.055-0.042,0.083-0.042c0.014,0,0.028,0.014,0.028,0.042
			c0,0.014-0.014,0.042-0.056,0.083c-0.998,0.873-3.852,2.549-5.279,2.619h-0.083c-0.734,0-1.011-0.554-1.011-1.108
			c0-0.222,0.042-0.443,0.125-0.637c0.305-0.721,0.776-1.303,1.399-1.718H63.03c-3.201,0-11.86,0.984-15.822,1.247
			c-1.871,0.111-3.727,0.194-5.598,0.194c-0.596,0-1.191-0.014-1.801-0.028c-0.97-0.028-1.967-0.097-2.923-0.346
			c-0.346-0.083-1.067-0.319-1.247-0.665c-0.027-0.056-0.055-0.125-0.055-0.194c0-0.194,0.139-0.36,0.333-0.36
			c0.125,0,0.277,0.069,0.43,0.235c0.526,0.596,1.524,0.762,2.286,0.845c1.566,0.167,3.145,0.235,4.739,0.235
			c1.261,0,2.521-0.042,3.782-0.097c3.575-0.167,12.747-1.275,16.418-1.275c0.111-0.069,0.236-0.125,0.36-0.18
			c0.139-0.055,0.263-0.083,0.36-0.083c0.318,0,0.471,0.222,0.471,0.471c0,0.125-0.042,0.263-0.125,0.374
			c-0.138,0.194-0.291,0.388-0.471,0.526c-0.401,0.263-0.831,0.499-1.247,0.734c-0.125,0.069-0.25,0.111-0.388,0.111
			c-0.083,0-0.166-0.014-0.263-0.055C62.102,79.112,62.019,79.362,62.019,79.583z M62.49,78.461c0.61-0.18,1.482-0.887,1.566-1.219
			C63.376,77.45,62.933,77.921,62.49,78.461z"/>
		<path fill="#FFFFFF" d="M67.193,84.474c-0.651,0-1.039-0.374-1.039-0.97c0-0.333,0.125-0.749,0.388-1.192
			c0.956-1.635,2.923-2.743,4.6-3.339c-0.11-0.263-2.882,0.028-3.145-0.9c-0.014-0.056-0.027-0.125-0.027-0.18
			c0-1.136,2.411-2.965,3.38-2.965c0.042,0,0.083,0.014,0.111,0.014c0.291,0.042,0.637,0.305,0.721,0.582
			c0.014,0.028,0.014,0.055,0.014,0.097c0,0.208-0.167,0.554-0.388,0.554c-0.125,0-0.249-0.083-0.374-0.333
			c-0.042-0.097-0.138-0.138-0.277-0.138c-0.762,0-2.702,1.385-2.702,2.133v0.028c0.027,0.333,0.72,0.443,1.413,0.513
			c0.707,0.056,1.413,0.069,1.635,0.457c0.928-0.333,3.201-0.817,4.185-0.942c0.069-0.014,0.125-0.014,0.18-0.014
			c0.097,0,0.152,0.014,0.152,0.042c0,0.027-0.055,0.055-0.208,0.083c-0.859,0.139-3.242,0.665-4.115,1.039
			c-0.028,0.014-0.028,0.028-0.028,0.056c0,0.083,0.125,0.305,0.125,0.707c0,0.222-0.042,0.512-0.18,0.873
			c-0.596,1.51-1.954,2.993-3.463,3.588C67.789,84.405,67.47,84.474,67.193,84.474z M66.376,83.49c0,0.458,0.305,0.693,0.775,0.693
			c0.222,0,0.499-0.055,0.79-0.166c1.524-0.568,3.021-2.3,3.478-3.866c0.042-0.125,0.056-0.263,0.056-0.388
			c0-0.18-0.042-0.36-0.153-0.541c-1.468,0.471-3.754,1.787-4.572,3.187C66.486,82.853,66.376,83.213,66.376,83.49z"/>
		<path fill="#FFFFFF" d="M79.73,77.27c-0.208,0.374-0.915,1.607-1.025,1.898c0.111,0,0.152-0.083,0.194-0.138
			c0.332-0.347,1.385-1.399,2.12-1.399c0.25,0,0.457,0.125,0.596,0.429c0.277,0.651,0.083,1.358,0.346,2.009
			c0.194,0.471,0.388,0.624,0.762,0.665h0.069c0.998,0,2.757-1.871,3.769-2.688c0.069-0.055,0.139-0.139,0.25-0.152
			c0.014,0.028,0.027,0.042,0.027,0.069c0,0.055-0.083,0.097-0.125,0.125c-1.067,0.915-2.868,2.91-3.977,2.91h-0.027
			c-0.388-0.014-0.707-0.194-0.887-0.485c-0.458-0.721-0.277-1.247-0.416-1.981c-0.069-0.374-0.194-0.554-0.402-0.554
			c-0.125,0-0.277,0.056-0.457,0.152c-0.845,0.471-1.801,1.607-2.341,2.383c-0.139,0.194-0.277,0.443-0.471,0.443
			c-0.028,0-0.069,0-0.097-0.014c-0.097-0.042-0.138-0.125-0.138-0.235c0-0.139,0.069-0.305,0.111-0.43
			c0.125-0.402,0.305-0.803,0.512-1.177c1.025-1.898,2.633-4.905,3.866-6.678c0.042-0.056,0.111-0.097,0.111-0.208h-0.443
			c-0.596,0-1.593,0-1.648,0.014c-0.208,0-0.277,0.055-0.36,0.18c-1.58,2.508-2.951,4.822-4.364,7.426
			c-0.527,0.984-1.233,2.633-1.372,3.118c-0.069,0.235-0.125,0.471-0.125,0.72c0,0.125,0.014,0.25,0.056,0.374
			c0.014,0.028,0.014,0.056,0.014,0.069c0,0.083-0.055,0.139-0.111,0.139c-0.111,0-0.25-0.139-0.263-0.568V83.67
			c0-0.79,0.804-2.66,1.801-4.683c1.302-2.604,2.923-5.445,3.491-6.401c0.042-0.055,0.125-0.208,0.125-0.291
			c0-0.027-0.014-0.055-0.056-0.055h-0.028c-1.358,0.083-2.577,0.18-3.769,0.416c-0.166,0.042-0.485,0.083-0.72,0.083
			c-0.083,0-0.167,0-0.222-0.014c-0.25-0.069-0.333-0.208-0.333-0.346c0-0.305,0.429-0.679,0.665-0.679c0.028,0,0.055,0,0.083,0.014
			c0.069,0.042,0.167,0.097,0.167,0.263c0,0.069-0.014,0.166-0.056,0.277h0.056c0.457,0,3.948-0.263,4.295-0.305
			c0.152-0.014,0.249-0.069,0.318-0.194c0.264-0.416,1.954-2.965,2.3-3.284c0.125-0.111,0.333-0.167,0.499-0.18
			c0.111,0,0.152,0.125,0.152,0.25c0,0.055-0.014,0.125-0.027,0.18c-0.277,0.609-1.76,2.3-2.092,2.868
			c-0.028,0.069-0.111,0.167-0.111,0.236c0,0.042,0.028,0.083,0.125,0.083h1.136c0.43,0,0.817,0,0.915,0.014
			c0.152,0,0.374-0.235,0.457-0.346c0.901-1.053,1.025-1.191,2.147-1.995c0.167-0.111,0.333-0.222,0.541-0.263
			c0.042-0.014,0.083-0.014,0.125-0.014c0.222,0,0.36,0.139,0.36,0.374c0,0.028-0.014,0.069-0.014,0.111
			c-0.111,0.554-0.624,1.482-1.012,2.078c-0.028,0.055-0.055,0.097-0.055,0.111c0,0.028,0.027,0.042,0.097,0.042
			c1.275,0.014,2.466,0.097,3.727,0.152c0.042,0,0.139,0.097,0.139,0.166c0,0.056-0.042,0.083-0.125,0.083h-0.028
			c-0.18-0.014-0.291-0.097-0.458-0.097c-1.164-0.069-2.161-0.083-3.45-0.083c-0.139,0-0.194,0-0.277,0.097
			c-0.804,0.984-3.422,4.018-4.489,4.739C79.813,77.117,79.772,77.187,79.73,77.27z M80.16,76.494c0,0.014,0,0.028,0.014,0.042
			c0.374-0.25,3.381-3.575,3.852-4.253c0.028-0.028,0.042-0.042,0.042-0.055c0-0.014-0.014-0.028-0.055-0.028
			c-0.139-0.014-0.291-0.014-0.416-0.014h-0.624c-0.167,0-0.25,0.097-0.36,0.25c-0.721,1.095-1.773,2.854-2.425,4.004
			C80.174,76.452,80.16,76.48,80.16,76.494z M83.028,71.894c0,0.042,0.042,0.056,0.125,0.069c0.111,0.014,0.679,0.014,0.97,0.042
			c0.111,0,0.166-0.056,0.18-0.069c0.291-0.388,1.136-1.801,1.136-2.231c-0.568,0.139-1.995,1.593-2.383,2.12
			C83.042,71.852,83.028,71.88,83.028,71.894z"/>
		<path fill="#FFFFFF" d="M86.988,80.623c-0.721,0-1.012-0.541-1.012-1.095c0-0.222,0.042-0.443,0.125-0.637
			c0.402-0.984,1.108-1.69,2.106-2.106c0.138-0.069,0.263-0.083,0.374-0.083c0.291,0,0.443,0.208,0.443,0.443
			c0,0.138-0.042,0.277-0.125,0.388c-0.138,0.194-0.277,0.402-0.471,0.526c-0.388,0.263-0.817,0.499-1.233,0.734
			c-0.125,0.069-0.263,0.111-0.402,0.111c-0.083,0-0.166-0.014-0.263-0.042c-0.166,0.25-0.235,0.499-0.235,0.721
			c0,0.443,0.318,0.748,0.887,0.748c0.152,0,0.305-0.014,0.471-0.056c1.357-0.333,3.574-1.538,4.641-2.355
			c0.028-0.028,0.056-0.042,0.083-0.042c0.014,0,0.028,0.014,0.028,0.042c0,0.014-0.014,0.042-0.055,0.083
			c-0.998,0.873-3.852,2.549-5.279,2.619H86.988z M86.766,78.475c0.596-0.18,1.482-0.887,1.552-1.233
			C87.653,77.45,87.209,77.921,86.766,78.475z"/>
		<path fill="#FFFFFF" d="M87.43,72.656c-0.194,0-0.236-0.055-0.277-0.125c-0.014-0.028-0.028-0.069-0.028-0.097
			c0-0.097,0.069-0.208,0.333-0.291c0.388-0.138,0.762-0.166,1.164-0.166h0.762c1.455-0.056,4.475-0.208,5.943-0.25
			c0.222-0.014,0.264-0.083,0.36-0.263c0.18-0.319,1.178-2.147,1.455-2.453c0.111-0.125,0.249-0.222,0.401-0.222
			c0.111,0,0.222,0.042,0.333,0.139c0.027,0.028,0.042,0.056,0.042,0.097c0,0.111-0.097,0.263-0.194,0.402
			c-0.305,0.526-1.053,1.621-1.344,2.078c-0.042,0.069-0.069,0.111-0.069,0.152s0.042,0.056,0.139,0.056
			c0.277-0.014,0.707-0.014,1.233-0.014c2.48,0,7.108,0.097,8.438,0.139c0.346,0.014,0.79,0.028,1.136,0.055
			c0.153,0.028,0.208,0.083,0.208,0.139c0,0.097-0.125,0.194-0.139,0.194h-0.014c-0.097,0-0.402-0.125-0.471-0.139
			c-0.485-0.042-2.078-0.056-3.907-0.056c-2.757,0-6.041,0.042-6.747,0.069c-0.208,0-0.36,0.208-0.43,0.319
			c-1.538,2.798-4.78,8.452-5.639,11.389c-0.028,0.097-0.042,0.222-0.056,0.319c0.083,0.069,0.263,0.069,0.263,0.194
			c0,0.014,0,0.028-0.014,0.055c-0.056,0.125-0.208,0.25-0.347,0.25c-0.138,0-0.263-0.111-0.263-0.402
			c0-0.111,0.014-0.235,0.056-0.388c0.526-2.314,4.212-9.394,5.431-11.444c0.055-0.083,0.069-0.139,0.069-0.18
			c0-0.069-0.069-0.083-0.208-0.083c-2.12,0.111-4.946,0.083-7.205,0.485C87.666,72.642,87.527,72.656,87.43,72.656z"/>
		<path fill="#FFFFFF" d="M95.285,80.706c-0.443,0-0.707-0.291-0.707-0.776v-0.028c0.014-0.9,0.693-1.981,1.289-2.591
			c0.194-0.194,0.333-0.263,0.443-0.263c0.139,0,0.208,0.111,0.208,0.235c0,0.042,0,0.083-0.014,0.111
			c-0.027,0.097-0.125,0.18-0.194,0.277c-0.346,0.526-0.72,1.053-1.053,1.593c-0.111,0.194-0.222,0.485-0.222,0.734
			s0.097,0.43,0.36,0.43h0.083c0.887-0.097,3.187-1.316,3.949-1.801c0.36-0.236,0.72-0.499,1.081-0.749
			c0.014-0.014,0.042-0.014,0.055-0.014c0.014,0,0.042,0,0.042,0.028c0,0.014-0.027,0.055-0.111,0.111
			c-1.357,0.983-3.283,2.313-4.974,2.674C95.438,80.692,95.354,80.706,95.285,80.706z M96.934,76.438
			c-0.18,0-0.277-0.139-0.277-0.291c0-0.18,0.139-0.374,0.443-0.374c0.097,0,0.194,0.014,0.305,0.055
			c0.125,0.042,0.194,0.111,0.194,0.18c0,0.139-0.166,0.291-0.526,0.402C97.017,76.424,96.975,76.438,96.934,76.438z"/>
		<path fill="#FFFFFF" d="M100.881,81.08c-0.61,0-1.025-0.36-1.067-1.011v-0.152c0-1.108,0.804-2.286,1.496-3.062
			c0.374-0.43,0.707-0.582,0.97-0.582c0.402,0,0.637,0.346,0.637,0.707c0,0.194-0.069,0.402-0.222,0.541
			c-0.056,0.055-0.111,0.069-0.167,0.069c-0.083,0-0.152-0.056-0.18-0.167c-0.042-0.139-0.055-0.263-0.097-0.443
			c-0.097,0.056-0.194,0.083-0.25,0.139c-0.707,0.596-1.69,2.009-1.732,2.965v0.069c0,0.471,0.333,0.651,0.721,0.651
			c0.18,0,0.346-0.028,0.526-0.083c1.358-0.443,3.145-1.926,4.226-2.813c0.014-0.014,0.042-0.028,0.056-0.028
			s0.028,0.014,0.028,0.042c0,0.014,0,0.027-0.028,0.055c-0.956,0.998-2.951,2.563-4.281,2.993
			C101.283,81.038,101.075,81.08,100.881,81.08z"/>
		<path fill="#FFFFFF" d="M125.861,76.535c-6.013,0-12.525,1.053-16.488,2.536c0,0.042,0.18,0.235,0.18,0.693
			c0,0.235-0.055,0.54-0.208,0.942c-0.582,1.51-1.954,2.979-3.45,3.575c-0.374,0.152-0.692,0.222-0.97,0.222
			c-0.665,0-1.039-0.388-1.039-0.984c0-0.333,0.125-0.734,0.388-1.191c0.956-1.621,2.91-2.729,4.586-3.325h0.014
			c-0.111-0.277-2.882,0.014-3.145-0.915c-0.014-0.055-0.028-0.125-0.028-0.18c0-1.136,2.425-2.965,3.395-2.965
			c0.028,0,0.069,0.014,0.097,0.014c0.291,0.042,0.637,0.319,0.72,0.582c0.014,0.028,0.014,0.056,0.014,0.097
			c0,0.208-0.166,0.568-0.388,0.568c-0.125,0-0.25-0.097-0.374-0.346c-0.042-0.097-0.139-0.139-0.277-0.139
			c-0.762,0-2.702,1.386-2.702,2.134v0.027c0.042,0.347,0.734,0.443,1.413,0.513c0.707,0.056,1.427,0.083,1.663,0.471
			c4.337-1.552,11.347-2.591,17.333-2.591c2.425,0,4.683,0.18,6.526,0.554c0.776,0.166,1.441,0.36,1.967,0.554
			c0.347,0.139,1.067,0.319,1.261,0.665c0.028,0.069,0.042,0.125,0.042,0.194c0,0.194-0.139,0.374-0.333,0.374
			c-0.125,0-0.263-0.069-0.416-0.235c-0.54-0.609-1.496-0.984-2.244-1.15C131.167,76.743,128.563,76.535,125.861,76.535z
			 M109.193,79.805c0-0.194-0.042-0.402-0.167-0.596c-1.469,0.458-3.727,1.829-4.544,3.215c-0.263,0.443-0.374,0.803-0.374,1.081
			c0,0.471,0.305,0.707,0.79,0.707c0.222,0,0.485-0.056,0.776-0.167c1.524-0.582,3.034-2.313,3.478-3.879
			C109.179,80.054,109.193,79.93,109.193,79.805z"/>
	</g>
</g>
</svg>
