<?xml version="1.0" encoding="utf-8"?>
<!-- Generator: Adobe Illustrator 15.0.0, SVG Export Plug-In . SVG Version: 6.00 Build 0)  -->
<!DOCTYPE svg PUBLIC "-//W3C//DTD SVG 1.1//EN" "http://www.w3.org/Graphics/SVG/1.1/DTD/svg11.dtd">
<svg version="1.1" id="Layer_1" xmlns="http://www.w3.org/2000/svg" xmlns:xlink="http://www.w3.org/1999/xlink" x="0px" y="0px"
	 width="4968px" height="504px" viewBox="0 0 4968 504" enable-background="new 0 0 4968 504" xml:space="preserve">
<path d="M2694.838,257.064h101.52l-4.48,19.721c0,0-11.777,0.4-27.475,0.4c-2.238,42.668-17.377,80.895-47.111,105.049
	c24.116,24.955,51.031,41.453,79.645,41.453c16.818,0,28.576-6.027,37.572-16.107l23.557,17.322
	c-17.379,12.879-34.213,18.105-60.587,18.105c-40.374,0-78.507-16.912-110.462-43.08c-15.174,5.637-32.551,9.258-52.186,9.258
	c-75.146,0-108.221-35.016-108.221-74.438c0-32.605,22.416-68.426,62.808-90.563c-3.921-15.295-5.618-30.182-5.618-43.871
	c0-49.902,24.693-87.336,84.125-87.336c44.869,0,64.505,23.342,64.505,48.297c0,16.91-8.978,34.215-25.235,45.879l-32.533-18.105
	c11.779-10.461,17.396-22.537,17.396-33c0-12.879-8.418-22.938-24.676-22.938c-25.234,0-35.893,21.325-35.893,51.915
	c0,49.902,28.034,125.162,68.968,177.891c11.218-19.32,13.477-48.699,14.017-85.73c-7.857,0-15.696,0-24.096-0.4L2694.838,257.064z
	 M2670.723,385.443c-34.773-33.391-61.111-76.863-75.128-119.523c-12.915,16.1-18.534,35.828-18.534,54.736
	c0,36.229,21.875,68.82,63.387,68.82C2652.244,389.477,2662.323,388.281,2670.723,385.443z"/>
<path d="M2879.1,133.11c-1.623-5.638,1.605-9.669,7.242-9.669h26.953c3.229,0,6.439,2.818,7.26,5.637l48.699,184.729h1.604
	l65.606-189.955c0.803-2.416,3.621-4.433,6.832-4.433h7.242c3.229,0,6.049,2.017,6.85,4.433l66.411,189.955h1.604l47.895-184.729
	c0.803-2.818,4.016-5.637,7.242-5.637h26.973c5.617,0,8.848,4.031,7.242,9.669l-76.08,270.458c-0.803,3.209-4.012,5.617-7.242,5.617
	h-6.439c-2.818,0-6.029-1.996-6.832-4.404l-70.833-200.035h-2.017l-69.621,200.035c-0.82,2.408-4.031,4.404-6.85,4.404h-6.439
	c-3.211,0-6.439-2.408-7.242-5.617L2879.1,133.11z"/>
<path d="M3230.229,394.703l123.543-270.852c1.215-2.416,4.836-4.433,6.852-4.433h4.031c1.998,0,5.619,2.017,6.832,4.433
	l122.76,270.852c2.408,5.225-0.803,10.469-6.85,10.469h-25.348c-4.834,0-7.652-2.406-9.258-6.027l-24.955-55.137h-131.607
	c-8.045,18.516-16.5,36.621-24.545,55.137c-1.213,2.799-4.441,6.027-9.258,6.027h-25.365
	C3231.031,405.172,3227.801,399.928,3230.229,394.703z M3412.529,309.385l-49.498-110.275h-2.018l-49.088,110.275H3412.529z"/>
<path d="M3570.848,161.275h-65.607c-4.424,0-7.652-3.621-7.652-7.643v-22.539c0-4.023,3.229-7.652,7.652-7.652h173.063
	c4.424,0,7.635,3.629,7.635,7.652v22.539c0,4.021-3.211,7.643-7.635,7.643h-65.607v236.264c0,4.012-3.621,7.633-7.652,7.633h-26.561
	c-4.014,0-7.635-3.621-7.635-7.633V161.275z"/>
<path d="M3731.871,364.521c3.623-5.227,6.852-11.256,10.473-16.502c3.621-5.227,9.258-6.85,13.682-3.229
	c2.408,2.016,33.41,27.773,64.395,27.773c27.773,0,45.486-16.891,45.486-37.422c0-24.135-20.941-39.441-60.771-55.939
	c-41.064-17.305-73.264-38.639-73.264-85.33c0-31.385,24.154-74.454,88.139-74.454c40.262,0,70.443,20.934,74.453,23.751
	c3.23,2.008,6.459,7.645,2.428,13.682c-3.229,4.824-6.85,10.461-10.059,15.297c-3.23,5.227-8.457,7.643-14.094,4.021
	c-2.818-1.613-30.984-20.121-54.334-20.121c-33.803,0-45.469,21.326-45.469,36.221c0,22.938,17.695,37.021,51.105,50.713
	c46.682,18.916,86.531,41.035,86.531,90.162c0,41.848-37.424,76.041-89.742,76.041c-49.107,0-80.092-25.758-86.531-31.787
	C3730.678,374.17,3727.859,371.369,3731.871,364.521z"/>
<path d="M4068.908,117.254c56.668,0,101.615,49.023,101.615,106.736c0,58.721-44.947,107.736-101.615,107.736
	c-56.703,0-101.65-49.016-101.65-107.736C3967.258,166.277,4012.205,117.254,4068.908,117.254z M4068.908,298.539
	c37.256,0,66.373-33.188,66.373-74.549c0-40.344-29.117-73.027-66.373-73.027c-37.293,0-66.41,32.684-66.41,73.027
	C4002.498,265.352,4031.615,298.539,4068.908,298.539z"/>
<g>
	<path d="M4068.908,359.424c12.842,0,22.848,10.043,22.848,22.885c0,12.432-10.006,22.863-22.848,22.863
		c-12.469,0-22.883-10.432-22.883-22.863C4046.025,369.467,4056.439,359.424,4068.908,359.424z"/>
</g>
<path d="M729.415,121.533c0-3.957,3.136-7.513,7.428-7.513h156.208c4.292,0,7.411,3.556,7.411,7.513v22.128
	c0,3.956-3.118,7.512-7.411,7.512H769.638v80.615H873.92c3.901,0,7.411,3.556,7.411,7.504v22.137c0,4.339-3.51,7.503-7.411,7.503
	H769.638v84.964h123.414c4.292,0,7.411,3.556,7.411,7.512v21.728c0,3.956-3.118,7.512-7.411,7.512H736.843
	c-4.292,0-7.428-3.556-7.428-7.512V121.533z"/>
<path d="M967.992,117.184c0-3.948,3.529-7.111,7.43-7.111h9.762l169.478,198.374h0.394V121.533c0-3.957,3.116-7.513,7.428-7.513
	h24.993c3.9,0,7.409,3.556,7.409,7.513v265.952c0,3.955-3.509,7.111-7.409,7.111h-10.155l-169.497-203.908h-0.374v192.447
	c0,3.956-3.136,7.512-7.429,7.512h-24.599c-3.901,0-7.43-3.556-7.43-7.512V117.184z"/>
<path d="M1281.342,121.533c0-3.957,3.136-7.513,7.429-7.513h156.208c4.294,0,7.411,3.556,7.411,7.513v22.128
	c0,3.956-3.117,7.512-7.411,7.512h-123.413v80.615h104.283c3.9,0,7.409,3.556,7.409,7.504v22.137c0,4.339-3.509,7.503-7.409,7.503
	h-104.283v84.964h123.413c4.294,0,7.411,3.556,7.411,7.512v21.728c0,3.956-3.117,7.512-7.411,7.512h-156.208
	c-4.293,0-7.429-3.556-7.429-7.512V121.533z"/>
<path d="M1519.921,121.533c0-3.957,3.135-7.513,7.428-7.513h25.777c3.901,0,7.409,3.556,7.409,7.513v232.363h105.832
	c4.293,0,7.429,3.556,7.429,7.512v21.728c0,3.956-3.136,7.512-7.429,7.512h-139.019c-4.293,0-7.428-3.556-7.428-7.512V121.533z"/>
<path d="M1990.656,121.533c0-3.957,3.136-7.513,7.429-7.513h89.032c48.045,0,87.484,39.523,87.484,87.334
	c0,49.005-39.439,88.92-87.094,88.92h-56.628v92.86c0,3.956-3.51,7.512-7.411,7.512h-25.384c-4.293,0-7.429-3.556-7.429-7.512
	V121.533z M2084.783,251.545c26.935,0,49.594-22.128,49.594-50.582c0-26.869-22.659-47.419-49.594-47.419h-53.903v98.001H2084.783z"
	/>
<path d="M2231.883,121.533c0-3.957,3.136-7.513,7.429-7.513h156.208c4.294,0,7.411,3.556,7.411,7.513v22.128
	c0,3.956-3.117,7.512-7.411,7.512h-123.413v80.615h104.281c3.901,0,7.411,3.556,7.411,7.504v22.137c0,4.339-3.51,7.503-7.411,7.503
	h-104.281v84.964h123.413c4.294,0,7.411,3.556,7.411,7.512v21.728c0,3.956-3.117,7.512-7.411,7.512h-156.208
	c-4.293,0-7.429-3.556-7.429-7.512V121.533z"/>
<g>
	<path d="M3512.445,2226.153c0,1.342,1.717,4.385,1.717,9.928c0,3.063-0.561,7.074-2.482,12.041
		c-8.213,20.83-26.934,41.268-47.746,49.48c-4.965,1.902-9.369,2.855-13.177,2.855c-8.979,0-14.336-5.15-14.336-13.365
		c0-4.592,1.718-10.32,5.357-16.424c13.177-22.547,40.298-38.021,63.405-46.047c-1.512-3.809-39.719,0.186-43.359-12.412
		c-0.186-0.766-0.373-1.719-0.373-2.484c0-2.873,1.139-5.916,2.855-8.977c-34.568,8.4-96.462,19.672-160.259,24.824
		c-30.573,2.482-61.128,3.826-88.64,3.826c-38.208,0-70.293-2.668-87.689-9.555c-8.213-3.045-16.799-8.213-19.859-13.945
		c-0.58-0.951-0.766-1.902-0.766-2.854c0-1.719,0.951-3.641,2.482-4.779c0.766-0.578,1.53-0.953,2.67-0.953
		c1.529,0,3.247,0.766,5.17,2.857c2.855,3.246,4.012,7.074,7.26,10.695c3.621,3.826,9.352,7.074,15.269,8.604
		c18.348,4.199,45.095,7.074,80.036,7.074c24.078,0,52.15-1.344,83.676-4.406c51.385-4.777,113.278-12.037,163.34-25.775
		c9.928-13.383,31.318-27.699,41.248-27.699c0.393,0,0.952,0.188,1.346,0.188c4.012,0.764,8.79,4.385,9.928,8.025
		c0.188,0.373,0.188,0.766,0.188,1.326c0,3.061-2.296,7.84-5.338,7.84c-1.717,0-3.453-1.158-5.171-4.592
		c-0.56-1.326-1.903-1.904-3.808-1.904c-10.508,0-37.256,18.908-37.256,29.416v0.373c0.374,4.592,9.93,6.123,19.486,6.889
		c9.744,0.951,19.486,1.137,22.529,6.494c12.805-4.592,44.143-11.273,57.693-13.178c0.766,0,1.346-0.205,1.923-0.205
		c1.718,0,2.67,0.391,2.67,0.766c0,0.391-0.766,0.766-2.876,1.156c-11.832,1.717-44.684,8.979-56.722,14.131
		C3512.445,2225.573,3512.445,2225.778,3512.445,2226.153z M3509.775,2235.315c0-2.482-0.579-4.963-1.904-7.26
		c-20.438,6.309-51.776,24.658-63.236,43.938c-3.622,6.123-5.152,11.088-5.152,14.914c0,6.289,4.199,9.537,10.695,9.537
		c3.247,0,7.074-0.766,11.067-2.277c20.831-8.025,41.456-31.711,47.765-53.494
		C3509.59,2238.956,3509.775,2237.034,3509.775,2235.315z"/>
	<path d="M3565.248,2232.069c-2.295,0-4.777-1.717-4.777-4.387c0-0.578,0.186-1.139,0.372-1.717c0.766-2.297,1.53-4.404,2.501-6.684
		c3.043-6.309,7.448-11.852,12.786-16.629c3.062-2.67,7.074-4.014,10.695-4.014c4.404,0,8.604,1.922,10.508,5.17
		c0.188,0.188,0.188,0.188,0.392,0.188c0.766,0,1.719-1.156,2.67-1.344c0.186,0,0.579-0.188,0.766-0.188
		c1.53,0,2.296,1.717,2.296,3.434c0,0.58,0,1.158-0.206,1.531c-1.325,4.201-9.537,18.143-9.537,25.982
		c0,3.061,1.326,5.152,4.965,5.152h0.186c25.982,0,59.412-27.699,62.285-28.84h0.188c0.186,0,0.186,0,0.186,0.189
		c0,0,0,0.186-0.186,0.391c-12.04,12.227-44.33,30.742-61.334,31.506h-1.14c-7.446,0-9.93-4.572-9.93-10.115
		c0-5.152,1.904-11.088,4.015-15.287c-6.683,4.404-19.674,13.383-26.171,15.473
		C3566.2,2232.069,3565.826,2232.069,3565.248,2232.069z M3571.164,2222.327c0,0.576,0.188,0.764,0.394,0.764
		c0.186,0,0.56-0.188,0.951-0.373c7.821-4.777,12.226-7.447,18.908-13.943c-1.139-1.922-2.669-2.688-4.2-2.688
		c-0.766,0-1.717,0.205-2.67,0.766c-4.217,2.109-10.321,8.791-12.43,12.617C3571.93,2219.657,3571.164,2221.374,3571.164,2222.327z"
		/>
	<path d="M3661,2278.694c-10.116-0.971-12.804-9.369-12.804-17.975c0-18.701,13.569-55.771,20.063-72.775
		c12.992-33.037,26.935-61.688,52.338-89.965c2.67-2.875,5.357-5.545,8.399-7.84c3.247-2.482,6.497-3.436,9.557-3.436
		c2.109,0,4.2,0.58,5.73,1.719c2.669,1.902,3.64,4.965,3.64,8.605c0,10.693-8.418,25.98-11.665,31.318
		c-11.648,20.439-38.974,58.271-63.798,75.463c-2.11,1.324-4.387,3.248-5.152,4.965c-5.543,13.943-11.666,30.557-13.568,50.807
		c0,0.766-0.188,1.531-0.188,2.482c0,5.918,2.09,12.039,8.792,12.227h0.56c22.36,0,70.685-57.115,77.366-62.846
		c1.158-0.953,1.718-1.139,3.062-1.904h0.188c0.577,0,0.951,0.375,0.951,0.951v0.188c-1.325,1.531-0.951,1.139-1.904,2.109
		c-13.363,11.461-57.88,65.906-80.222,65.906H3661z M3672.834,2197.313c0,0.375,0.393,0.766,0.766,0.766
		c0.392,0,0.766-0.205,0.971-0.391c23.871-17.77,43.172-45.078,58.067-71.432c2.091-3.828,10.882-19.879,10.882-28.277
		c0-2.297-0.58-4.014-2.297-4.779c-0.373-0.188-0.765-0.188-1.324-0.188c-1.923,0-4.404,1.139-7.261,4.016
		c-2.875,3.041-5.545,6.102-8.213,9.35c-20.252,24.264-34.586,54.633-48.343,83.285c-0.746,1.529-2.67,5.729-3.248,7.26V2197.313z"
		/>
	<path d="M3799.533,2200.356c-11.087,4.406-21.969,8.027-33.43,8.027c-3.061,0-6.122-0.188-9.184-0.766
		c-0.186,0.766-0.372,1.156-0.372,1.344c0.577,1.904,0.765,3.826,0.765,5.73c0,4.965-1.718,9.742-4.592,14.129
		c-4.592,7.447-10.509,13.57-17.563,18.721c-2.296,1.719-4.778,2.688-6.7,2.688c-3.044,0-5.152-2.107-5.152-6.121
		c0-1.344,0.187-3.248,0.951-5.152c3.827-10.695,23.5-41.268,32.292-43.172c0.372,0,0.577-0.188,0.951-0.188
		c1.717,0,2.875,1.141,2.875,2.67c0,0.578-0.205,1.344-0.765,1.904c-0.394,0.766-1.158,1.529-1.531,2.109
		c0.187,0.766,0.766,0.951,1.325,0.951h0.971c1.717,0.186,3.434,0.186,5.15,0.186c7.057,0,13.757-1.324,20.439-4.012
		c5.338-2.092,10.882-4.387,16.239-6.496c1.324-0.559,2.668-1.139,4.198-1.139c0.953,0,1.717,0.188,2.67,1.139
		c0.951,1.158,1.343,2.297,1.343,3.453c0,1.141-0.392,2.482-0.951,3.621c-1.531,3.248-3.062,6.104-4.592,9.166
		c-0.578,0.951-1.344,1.922-1.531,3.639c4.201-3.248,10.695-9.371,15.102-10.695c0.766-0.205,1.531-0.393,2.091-0.393
		c3.825,0,4.776,4.199,4.776,8.025v5.732c0,8.791,0.953,18.906,11.462,18.906h0.766c15.659-0.766,39.158-17.564,47.185-24.824
		c0.188,0,0.391-0.205,0.391-0.205c0.748,0,1.14,0.971,1.14,1.531c0,0.205,0,0.391-0.187,0.578
		c-9.744,9.557-34.586,25.982-48.342,26.561h-0.952c-9.166,0-15.474-5.936-16.033-15.287c-0.205-1.717-0.205-3.248-0.205-4.777
		c0-3.436,0.205-6.309,0.205-8.4c0-2.109-0.205-3.248-1.158-3.248c-1.138,0-2.856,1.326-5.917,3.809
		c-16.426,13.568-17.19,16.238-26.747,33.82c-0.951,1.719-2.091,4.014-4.2,4.014c-0.578,0-1.138,0-1.717-0.393
		c-1.345-0.561-1.922-1.717-1.922-3.041c0-1.736,1.156-3.828,1.53-4.984c5.935-15.66,11.666-23.873,18.927-37.816V2200.356z
		 M3752.348,2214.319c0-1.158-0.206-2.109-0.766-3.248c-4.778,4.199-17.77,25.01-18.908,30.367
		c7.447-4.965,16.612-13.943,18.908-22.547C3751.955,2217.36,3752.348,2215.829,3752.348,2214.319z"/>
	<path d="M3959.343,2286.517c-0.577,5.543-0.951,11.086-0.951,16.816c0,3.246,0.187,6.494,0.374,9.744v1.529
		c0,0.766,0,1.512-0.766,1.717c-0.188,0-0.373,0.188-0.56,0.188c-0.766,0-1.159-0.766-1.53-1.344
		c-0.972-2.484-1.346-5.152-1.346-7.822v-16.051c2.11-32.852,5.152-65.721,8.027-98.572c2.856-33.428,6.309-66.857,9.557-100.1
		c0.372-3.434,0.372-6.869,0.56-10.117c0-1.344,0.187-2.875,0.578-4.199c0.373-1.529,1.53-1.924,2.67-1.924
		c1.156,0,2.296,0.395,2.688,1.158c0.953,0.953,0.953,12.02,0.953,18.723v4.572c-1.345,23.125-4.78,45.859-7.448,68.779
		c-2.875,22.736-5.729,45.451-8.231,68.186C3962.199,2254.038,3960.874,2270.276,3959.343,2286.517z"/>
	<path d="M4038.466,2254.243c-1.904,0-3.248-1.736-3.248-3.826c0-0.766,0-1.531,0.393-2.295
		c4.013-11.275,8.211-22.549,12.598-33.617c12.04-29.229,27.514-56.162,48.904-79.662c5.935-6.309,16.051-16.053,24.656-18.33
		c0.765-0.205,1.324-0.205,2.09-0.205c3.827,0,5.936,3.063,5.936,6.887c0,1.531-0.206,3.25-0.971,4.779
		c-0.952,2.482-2.277,4.965-3.808,7.262c-16.052,26.354-35.726,49.854-58.272,70.664c-5.729,5.172-9.744,10.695-12.412,17.77
		c-0.953,2.67-2.11,5.152-2.482,8.213l21.017-19.094c3.434-2.873,9.743-6.701,15.081-6.701c1.924,0,3.641,0.578,5.151,1.736
		c5.357,4.572,3.062,10.49,4.406,10.49h0.372c15.679-5.73,28.091-7.447,44.33-8.588c1.324-0.186,2.296-0.186,3.041-0.186
		c0.394,0,0.58,0.186,0.58,0.561c0,0.205-0.187,0.391-0.58,0.391c-5.523,0.766-8.585,0.953-13.736,1.719
		c-10.714,1.717-20.644,3.826-31.152,8.398c-2.482,1.158-4.012,2.295-4.759,5.17c-6.889,23.686-18.722,36.865-34.96,53.477
		c-1.717,1.922-4.2,3.434-6.496,4.592c-1.531,0.951-3.248,1.324-4.965,1.324c-4.404,0-8.213-3.229-8.213-9.164
		c0-4.572,2.278-10.695,8.4-18.143c15.286-18.348,23.686-25.031,41.455-36.678c0.766-0.578,1.139-0.578,1.139-1.342
		c0.187-0.953,0.187-2.279,0.187-3.436v-1.344c-0.56-3.043-2.276-5.15-4.778-5.15c-0.953,0-1.904,0.186-2.855,0.764
		c-16.613,7.635-31.135,26.748-42.034,41.064C4041.153,2253.479,4039.809,2254.243,4038.466,2254.243z M4091.007,2225.388
		c0,0-0.186-0.188-0.391-0.188c-0.561,0-2.277,1.344-3.043,1.904c-13.57,8.791-25.217,19.672-34.587,32.664
		c-5.15,7.074-7.446,12.805-7.446,16.424c0,2.502,1.156,3.828,3.062,3.828c2.091,0,5.338-1.531,9.163-5.152
		c13.178-12.412,23.687-26.561,31.135-43.172c0.765-1.904,1.343-3.826,1.922-5.73
		C4090.821,2225.778,4091.007,2225.573,4091.007,2225.388z M4065.212,2202.466c0.58-0.373,1.157-0.766,1.531-1.344
		c20.83-21.576,42.407-45.842,56.35-72.775c0.766-1.531,0.952-3.434,1.531-5.152c-0.374-0.186-0.766-0.391-0.951-0.578
		c-1.345,0.766-2.876,1.344-4.015,2.297c-3.062,2.482-6.309,4.965-8.978,7.82C4091.96,2153.563,4076.878,2176.876,4065.212,2202.466
		z"/>
	<path d="M4140.918,2232.069c-2.296,0-4.778-1.717-4.778-4.387c0-0.578,0.186-1.139,0.374-1.717c0.765-2.297,1.53-4.404,2.501-6.684
		c3.042-6.309,7.448-11.852,12.784-16.629c3.062-2.67,7.076-4.014,10.697-4.014c4.404,0,8.604,1.922,10.508,5.17
		c0.186,0.188,0.186,0.188,0.392,0.188c0.766,0,1.718-1.156,2.67-1.344c0.186,0,0.579-0.188,0.765-0.188
		c1.531,0,2.296,1.717,2.296,3.434c0,0.58,0,1.158-0.205,1.531c-1.325,4.201-9.538,18.143-9.538,25.982
		c0,3.061,1.325,5.152,4.966,5.152h0.186c25.981,0,59.412-27.699,62.285-28.84h0.188c0.187,0,0.187,0,0.187,0.189
		c0,0,0,0.186-0.187,0.391c-12.039,12.227-44.329,30.742-61.334,31.506h-1.139c-7.447,0-9.93-4.572-9.93-10.115
		c0-5.152,1.902-11.088,4.013-15.287c-6.681,4.404-19.673,13.383-26.169,15.473
		C4141.87,2232.069,4141.497,2232.069,4140.918,2232.069z M4146.835,2222.327c0,0.576,0.188,0.764,0.392,0.764
		c0.188,0,0.562-0.188,0.953-0.373c7.819-4.777,12.226-7.447,18.907-13.943c-1.14-1.922-2.67-2.688-4.199-2.688
		c-0.766,0-1.717,0.205-2.67,0.766c-4.219,2.109-10.321,8.791-12.43,12.617C4147.601,2219.657,4146.835,2221.374,4146.835,2222.327z
		"/>
	<path d="M4227.692,2265.892c0-16.24,17.563-37.836,19.674-45.656c0-0.391,0.186-0.766,0.186-1.156
		c0-5.152-10.881-4.76-15.659-8.008c-0.953-0.971-1.53-2.482-1.53-4.406c0-3.434,1.717-7.82,4.964-11.646
		c1.157-1.156,2.688-1.717,4.2-1.717c3.248,0,6.495,2.295,6.495,5.918c0,1.717-0.56,3.621-2.482,5.729
		c6.7,2.297,13.197,4.592,13.197,11.852c0,1.141,0,2.279-0.394,3.621c-1.137,6.123-24.45,31.135-24.45,47.561v1.156
		c0.392,4.199,2.482,7.449,7.074,8.586c0.766,0.205,1.717,0.393,2.668,0.393c22.343,0,76.79-58.068,91.703-66.484
		c1.325-0.766,2.669-1.326,3.993-2.092c0.393,0.375,0.578,0.766,0.766,0.951c-0.766,0.766-1.513,1.719-2.482,2.092
		c-23.295,14.521-70.666,68.016-94.744,68.016c-0.952,0-1.717,0-2.482-0.188c-6.309-1.156-8.586-4.59-9.93-8.791
		C4227.88,2269.903,4227.692,2267.981,4227.692,2265.892z"/>
	<path d="M4324.396,2254.243c-1.904,0-3.247-1.736-3.247-3.826c0-0.766,0-1.531,0.392-2.295
		c4.013-11.275,8.212-22.549,12.599-33.617c12.039-29.229,27.513-56.162,48.903-79.662c5.935-6.309,16.052-16.053,24.656-18.33
		c0.765-0.205,1.325-0.205,2.091-0.205c3.826,0,5.916,3.063,5.916,6.887c0,1.531-0.186,3.25-0.951,4.779
		c-0.953,2.482-2.277,4.965-3.809,7.262c-16.051,26.354-35.725,49.854-58.272,70.664c-5.729,5.172-9.742,10.695-12.412,17.77
		c-0.951,2.67-2.108,5.152-2.482,8.213l21.018-19.094c3.433-2.873,9.743-6.701,15.081-6.701c1.923,0,3.64,0.578,5.17,1.736
		c5.338,4.572,3.042,10.49,4.387,10.49h0.374c15.679-5.73,28.091-7.447,44.329-8.588c1.326-0.186,2.297-0.186,3.043-0.186
		c0.391,0,0.578,0.186,0.578,0.561c0,0.205-0.188,0.391-0.578,0.391c-5.526,0.766-8.588,0.953-13.738,1.719
		c-10.715,1.717-20.645,3.826-31.152,8.398c-2.481,1.158-4.013,2.295-4.76,5.17c-6.889,23.686-18.721,36.865-34.96,53.477
		c-1.717,1.922-4.218,3.434-6.495,4.592c-1.53,0.951-3.247,1.324-4.965,1.324c-4.404,0-8.212-3.229-8.212-9.164
		c0-4.572,2.276-10.695,8.399-18.143c15.285-18.348,23.685-25.031,41.454-36.678c0.766-0.578,1.14-0.578,1.14-1.342
		c0.186-0.953,0.186-2.279,0.186-3.436v-1.344c-0.56-3.043-2.276-5.15-4.778-5.15c-0.951,0-1.902,0.186-2.855,0.764
		c-16.611,7.635-31.133,26.748-42.034,41.064C4327.084,2253.479,4325.741,2254.243,4324.396,2254.243z M4376.938,2225.388
		c0,0-0.187-0.188-0.392-0.188c-0.56,0-2.276,1.344-3.042,1.904c-13.57,8.791-25.218,19.672-34.586,32.664
		c-5.152,7.074-7.448,12.805-7.448,16.424c0,2.502,1.157,3.828,3.062,3.828c2.091,0,5.338-1.531,9.164-5.152
		c13.178-12.412,23.686-26.561,31.134-43.172c0.765-1.904,1.343-3.826,1.922-5.73
		C4376.752,2225.778,4376.938,2225.573,4376.938,2225.388z M4351.144,2202.466c0.579-0.373,1.158-0.766,1.53-1.344
		c20.831-21.576,42.407-45.842,56.351-72.775c0.766-1.531,0.951-3.434,1.53-5.152c-0.374-0.186-0.765-0.391-0.951-0.578
		c-1.345,0.766-2.876,1.344-4.015,2.297c-3.06,2.482-6.307,4.965-8.977,7.82C4377.892,2153.563,4362.81,2176.876,4351.144,2202.466z
		"/>
	<path d="M4435.436,2247.356c-9.93,0-13.942-7.449-13.942-15.082c0-3.063,0.579-6.121,1.717-8.791
		c5.543-13.568,15.287-23.313,29.044-29.043c1.902-0.953,3.619-1.139,5.149-1.139c4.014,0,6.123,2.855,6.123,6.104
		c0,1.922-0.579,3.826-1.717,5.357c-1.924,2.668-3.826,5.543-6.496,7.26c-5.355,3.621-11.273,6.869-17.003,10.115
		c-1.718,0.953-3.641,1.531-5.545,1.531c-1.138,0-2.296-0.186-3.621-0.578c-2.296,3.453-3.247,6.887-3.247,9.949
		c0,6.104,4.387,10.303,12.226,10.303c2.091,0,4.199-0.188,6.495-0.766c18.723-4.572,49.276-21.203,63.984-32.477
		c0.393-0.375,0.766-0.561,1.158-0.561c0.186,0,0.372,0.186,0.372,0.561c0,0.205-0.187,0.578-0.765,1.156
		c-13.756,12.041-53.104,35.148-72.775,36.1H4435.436z M4432.394,2217.753c8.212-2.482,20.438-12.225,21.389-17.004
		C4444.618,2203.604,4438.497,2210.101,4432.394,2217.753z"/>
	<path d="M4500.24,2265.892c0-16.24,17.563-37.836,19.674-45.656c0-0.391,0.187-0.766,0.187-1.156c0-5.152-10.882-4.76-15.66-8.008
		c-0.951-0.971-1.53-2.482-1.53-4.406c0-3.434,1.717-7.82,4.966-11.646c1.155-1.156,2.686-1.717,4.199-1.717
		c3.247,0,6.494,2.295,6.494,5.918c0,1.717-0.56,3.621-2.482,5.729c6.701,2.297,13.197,4.592,13.197,11.852
		c0,1.141,0,2.279-0.393,3.621c-1.139,6.123-24.451,31.135-24.451,47.561v1.156c0.392,4.199,2.482,7.449,7.074,8.586
		c0.766,0.205,1.717,0.393,2.668,0.393c22.344,0,76.79-58.068,91.703-66.484c1.325-0.766,2.668-1.326,3.994-2.092
		c0.393,0.375,0.579,0.766,0.765,0.951c-0.765,0.766-1.511,1.719-2.481,2.092c-23.295,14.521-70.667,68.016-94.745,68.016
		c-0.952,0-1.717,0-2.482-0.188c-6.309-1.156-8.585-4.59-9.93-8.791C4500.428,2269.903,4500.24,2267.981,4500.24,2265.892z"/>
	<path d="M4684.093,2286.517c-0.579,5.543-0.953,11.086-0.953,16.816c0,3.246,0.188,6.494,0.374,9.744v1.529
		c0,0.766,0,1.512-0.765,1.717c-0.187,0-0.374,0.188-0.561,0.188c-0.766,0-1.156-0.766-1.53-1.344
		c-0.972-2.484-1.345-5.152-1.345-7.822v-16.051c2.109-32.852,5.151-65.721,8.027-98.572c2.855-33.428,6.309-66.857,9.556-100.1
		c0.374-3.434,0.374-6.869,0.56-10.117c0-1.344,0.206-2.875,0.58-4.199c0.372-1.529,1.53-1.924,2.668-1.924
		c1.158,0,2.296,0.395,2.689,1.158c0.951,0.953,0.951,12.02,0.951,18.723v4.572c-1.345,23.125-4.778,45.859-7.448,68.779
		c-2.875,22.736-5.731,45.451-8.231,68.186C4686.948,2254.038,4685.624,2270.276,4684.093,2286.517z"/>
	<path d="M4764.185,2300.458c-8.979,0-14.336-5.15-14.336-13.365c0-4.592,1.719-10.32,5.357-16.424
		c13.178-22.547,40.298-37.836,63.405-46.047c-1.511-3.621-39.718,0.393-43.358-12.412c-0.187-0.766-0.374-1.719-0.374-2.484
		c0-15.658,33.243-40.875,46.607-40.875c0.578,0,1.138,0.188,1.531,0.188c4.013,0.576,8.791,4.197,9.93,8.025
		c0.187,0.373,0.187,0.766,0.187,1.324c0,2.875-2.297,7.654-5.338,7.654c-1.717,0-3.453-1.158-5.172-4.592
		c-0.56-1.326-1.902-1.904-3.807-1.904c-10.508,0-37.256,19.094-37.256,29.416v0.373c0.373,4.592,9.93,6.123,19.487,7.074
		c9.742,0.766,19.485,0.951,22.546,6.309c12.786-4.592,44.125-11.273,57.676-12.992c0.951-0.186,1.717-0.186,2.482-0.186
		c1.344,0,2.109,0.186,2.109,0.561c0,0.391-0.766,0.766-2.875,1.156c-11.833,1.904-44.684,9.164-56.723,14.316
		c-0.392,0.205-0.392,0.393-0.392,0.766c0,1.156,1.717,4.199,1.717,9.742c0,3.063-0.56,7.074-2.481,12.041
		c-8.214,20.83-26.935,41.268-47.746,49.48C4772.396,2299.505,4767.992,2300.458,4764.185,2300.458z M4752.91,2286.907
		c0,6.289,4.2,9.537,10.695,9.537c3.062,0,6.869-0.766,10.882-2.277c21.017-7.838,41.643-31.711,47.951-53.307
		c0.579-1.717,0.765-3.621,0.765-5.338c0-2.482-0.579-4.984-2.109-7.467c-20.232,6.496-51.757,24.658-63.031,43.938
		C4754.441,2278.116,4752.91,2283.081,4752.91,2286.907z"/>
	<path d="M4819.452,2354.14c-1.139,0-2.295-0.766-2.669-3.621v-0.393c0-1.139,0.374-2.09,0.765-2.855
		c18.144-45.469,37.816-90.17,63.033-132.205c4.404-7.242,9.557-14.316,14.708-21.203c2.482-3.248,7.838-9.166,12.431-9.725h0.56
		c2.109,0,3.435,1.324,3.435,3.229c0,0.578,0,0.969-0.186,1.344c-0.562,1.344-1.327,2.482-2.297,3.641
		c-14.896,20.045-26.729,42.014-38.582,63.797c-0.186,0.373-0.372,0.953-0.372,1.344c0.187,0.373,0.372,0.373,0.56,0.746
		c14.335-18.906,28.092-35.52,46.047-51.18c4.966-4.404,15.287-12.432,21.97-13.941c1.138-0.207,2.091-0.395,3.042-0.395
		c4.591,0,6.495,2.875,6.495,7.074c0,5.918-3.621,14.523-8.212,20.813c13.943-4.779,21.969-6.682,49.48-10.693
		c1.717-0.189,3.061-0.375,4.013-0.375c1.904,0,2.67,0.375,2.67,0.766c0,0.766-1.717,1.512-3.248,1.717
		c-5.73,0.373-44.312,8.025-55.771,14.316c-12.806,17.004-19.114,27.326-37.07,40.129c-2.481,1.719-4.572,2.484-6.289,2.484
		c-2.483,0-4.014-1.736-4.014-4.406c0-1.717,0.373-3.621,1.53-5.729c3.249-6.311,7.82-11.836,12.786-16.799
		c8.979-9.186,15.473-14.148,24.451-18.535c5.544-3.639,10.322-14.895,11.853-20.83c0.374-1.531,0.952-2.857,0.952-3.623
		c0-0.576-0.374-0.764-0.952-0.764c-0.188,0-0.579,0-1.157,0.188c-10.491,2.668-24.246,15.1-31.506,22.547
		c-25.031,25.404-46.049,53.68-63.238,84.627c-6.104,10.883-11.068,22.156-16.426,33.43c-1.718,3.621-1.718,8.213-6.104,13.943
		C4821.935,2353.188,4820.796,2354.14,4819.452,2354.14z M4923.566,2235.522c0-0.207-0.187-0.393-0.579-0.393
		c-0.372,0-0.951,0.186-1.717,0.58c-8.213,5.338-16.053,13.176-20.439,19.486c-0.372,0.559-0.766,1.324-0.766,1.904
		c0,0.186,0.188,0.576,0.58,0.576c0.373,0,0.951-0.186,1.717-0.576c5.357-4.967,14.521-11.836,20.064-19.674
		C4923.192,2236.661,4923.566,2236.081,4923.566,2235.522z"/>
	<path d="M4989.529,2232.274c-2.483,0-4.966-1.736-4.966-4.404c0-0.58,0.187-1.139,0.374-1.717c0.766-2.297,1.343-4.592,2.482-6.684
		c3.062-6.496,7.447-12.039,12.617-16.629c3.042-2.67,7.057-3.996,10.882-3.996c4.387,0,8.398,1.717,10.322,4.965
		c0.187,0.188,0.373,0.188,0.561,0.188c0.577,0,1.734-0.951,2.5-1.344h0.56c1.717,0,2.67,1.922,2.67,3.639
		c0,0.561,0,0.953-0.188,1.326c-0.952,2.873-4.386,8.605-4.386,15.68v0.559c0.373,12.412,6.31,14.914,16.799,14.914h1.344
		c88.453-0.971,249.665-40.896,326.081-40.896h6.121c10.881,0.393,51.572,2.109,57.676,13.758c0.391,0.951,0.766,1.922,0.766,2.688
		c0,2.668-1.904,5.15-4.76,5.15c-1.529,0-3.641-0.953-5.73-3.246c-7.465-8.215-21.018-10.51-31.525-11.854
		c-6.682-0.766-14.129-1.139-22.361-1.139c-84.814,0-243.935,36.863-326.267,38.58h-1.717c-5.152,0-11.275-0.764-15.288-4.199
		c-5.15-4.387-7.26-12.225-7.26-18.33c0-0.969,0-1.922,0.205-2.873c-6.702,4.404-19.879,13.383-26.187,15.66
		C4990.481,2232.274,4989.901,2232.274,4989.529,2232.274z M4995.259,2222.532c0,0.371,0,0.766,0.373,0.766
		c0.205,0,0.393-0.207,0.765-0.395c8.027-4.777,12.226-7.633,19.114-13.941c-1.345-2.109-2.688-2.875-4.2-2.875
		c-0.766,0-1.735,0.393-2.688,0.766c-4.198,2.109-10.302,8.791-12.598,12.805
		C4995.837,2219.845,4995.259,2221.562,4995.259,2222.532z"/>
</g>
<path d="M5821.966,1567.619h-25.758c-4.441,0-7.652,7.214-7.652,15.202v330.858v47.215h-0.41l0.41,0.025v143.125h-0.41
	l-174.669-202.04h-10.061c-4.014,0-7.635,3.22-7.635,7.251v270.869c0,4.012,3.621,7.633,7.635,7.633h25.365
	c4.424,0,7.633-3.621,7.633-7.633v-196.012h0.412l174.669,207.658h10.471c4.014,0,7.633-3.211,7.633-7.242v-221.041v-49.809
	v-330.858C5829.599,1574.833,5825.979,1567.619,5821.966,1567.619z"/>
<path d="M5488.553,1645.256h-89.818c-3.9,0-7.037,3.557-7.037,7.514v23.994v237.607v336.215c0,9.779,3.49,18.553,7.373,18.553
	h25.627c3.901,0,7.392-8.773,7.392-18.553v-328.703h56.464c75.369,0,137.074-62.043,137.074-138.71
	C5625.627,1707.299,5563.922,1645.256,5488.553,1645.256z M5483.082,1884.338h-50.993v-201.537h50.993
	c57.415,0,99.187,42.287,99.187,100.372C5582.269,1841.661,5540.497,1884.338,5483.082,1884.338z"/>
<path d="M1819.215,390.646c-56.667,0-101.612-49.023-101.612-106.736c0-58.72,44.945-107.745,101.612-107.745
	c56.706,0,101.651,49.024,101.651,107.745C1920.867,341.623,1875.921,390.646,1819.215,390.646z M1819.215,209.362
	c-37.254,0-66.372,33.186-66.372,74.548c0,40.344,29.118,73.027,66.372,73.027c37.293,0,66.411-32.684,66.411-73.027
	C1885.626,242.548,1856.508,209.362,1819.215,209.362z"/>
<g>
	<path d="M1819.215,148.477c-12.841,0-22.845-10.033-22.845-22.875c0-12.44,10.004-22.875,22.845-22.875
		c12.469,0,22.884,10.434,22.884,22.875C1842.099,138.444,1831.684,148.477,1819.215,148.477z"/>
</g>
<path d="M477.609,121.784c0-3.957,3.136-7.513,7.429-7.513h89.033c48.045,0,87.484,39.523,87.484,87.334
	c0,49.005-39.439,88.92-87.094,88.92h-56.628v92.86c0,3.956-3.51,7.512-7.411,7.512h-25.384c-4.293,0-7.429-3.556-7.429-7.512
	V121.784z M571.736,251.796c26.934,0,49.594-22.128,49.594-50.582c0-26.869-22.66-47.419-49.594-47.419h-53.904v98.001H571.736z"/>
<path d="M4237.119,126.476c0-4.023,3.597-7.247,7.572-7.247h9.949l172.715,202.162h0.399V130.908c0-4.032,3.177-7.656,7.569-7.656
	h25.473c3.975,0,7.549,3.624,7.549,7.656v271.031c0,4.03-3.574,7.247-7.549,7.247h-10.352l-172.733-207.802h-0.381v196.123
	c0,4.031-3.196,7.655-7.571,7.655h-25.068c-3.976,0-7.572-3.624-7.572-7.655V126.476z"/>
</svg>
